solid zone0
 facet normal 0.0383016 0 0.999266
  outer loop
   vertex 0.0538275 0.275 0.0998533
   vertex 0.05 0.275 0.1
   vertex 0.05 0 0.1
  endloop
 endfacet
 facet normal -0.0383016 0 0.999266
  outer loop
   vertex 0.05 0 0.1
   vertex 0.05 0.275 0.1
   vertex 0.0461725 0 0.0998533
  endloop
 endfacet
 facet normal -0.0383016 0 0.999266
  outer loop
   vertex 0.05 0.275 0.1
   vertex 0.0461725 0.275 0.0998533
   vertex 0.0461725 0 0.0998533
  endloop
 endfacet
 facet normal -0.152649 0 0.98828
  outer loop
   vertex 0.0461725 0 0.0998533
   vertex 0.0461725 0.275 0.0998533
   vertex 0.0386073 0.275 0.0986848
  endloop
 endfacet
 facet normal -0.152649 0 0.98828
  outer loop
   vertex 0.0461725 0 0.0998533
   vertex 0.0386073 0.275 0.0986848
   vertex 0.0386073 0 0.0986848
  endloop
 endfacet
 facet normal -0.301721 0 0.953396
  outer loop
   vertex 0.0386073 0 0.0986848
   vertex 0.0386073 0.275 0.0986848
   vertex 0.0313091 0.275 0.0963751
  endloop
 endfacet
 facet normal -0.301721 0 0.953396
  outer loop
   vertex 0.0386073 0 0.0986848
   vertex 0.0313091 0.275 0.0963751
   vertex 0.0313091 0 0.0963751
  endloop
 endfacet
 facet normal -0.44372 0 0.896165
  outer loop
   vertex 0.0313091 0 0.0963751
   vertex 0.0313091 0.275 0.0963751
   vertex 0.0244491 0.275 0.0929785
  endloop
 endfacet
 facet normal -0.44372 0 0.896165
  outer loop
   vertex 0.0313091 0 0.0963751
   vertex 0.0244491 0.275 0.0929785
   vertex 0.0244491 0 0.0929785
  endloop
 endfacet
 facet normal -0.575319 0 0.817929
  outer loop
   vertex 0.0244491 0 0.0929785
   vertex 0.0244491 0.275 0.0929785
   vertex 0.0181879 0.275 0.0885745
  endloop
 endfacet
 facet normal -0.575319 0 0.817929
  outer loop
   vertex 0.0244491 0 0.0929785
   vertex 0.0181879 0.275 0.0885745
   vertex 0.0181879 0 0.0885745
  endloop
 endfacet
 facet normal -0.693432 0 0.720522
  outer loop
   vertex 0.0181879 0 0.0885745
   vertex 0.0181879 0.275 0.0885745
   vertex 0.0126723 0.275 0.0832663
  endloop
 endfacet
 facet normal -0.693432 0 0.720522
  outer loop
   vertex 0.0181879 0 0.0885745
   vertex 0.0126723 0.275 0.0832663
   vertex 0.0126723 0 0.0832663
  endloop
 endfacet
 facet normal -0.795293 0 0.606225
  outer loop
   vertex 0.0126723 0 0.0832663
   vertex 0.0126723 0.275 0.0832663
   vertex 0.00803173 0.275 0.0771784
  endloop
 endfacet
 facet normal -0.795293 0 0.606225
  outer loop
   vertex 0.0126723 0 0.0832663
   vertex 0.00803173 0.275 0.0771784
   vertex 0.00803173 0 0.0771784
  endloop
 endfacet
 facet normal -0.878512 0 0.47772
  outer loop
   vertex 0.00803173 0 0.0771784
   vertex 0.00803173 0.275 0.0771784
   vertex 0.00437482 0.275 0.0704534
  endloop
 endfacet
 facet normal -0.878512 0 0.47772
  outer loop
   vertex 0.00803173 0 0.0771784
   vertex 0.00437482 0.275 0.0704534
   vertex 0.00437482 0 0.0704534
  endloop
 endfacet
 facet normal -0.94114 0 0.338017
  outer loop
   vertex 0.00437482 0 0.0704534
   vertex 0.00437482 0.275 0.0704534
   vertex 0.00178733 0.275 0.0632491
  endloop
 endfacet
 facet normal -0.94114 0 0.338017
  outer loop
   vertex 0.00437482 0 0.0704534
   vertex 0.00178733 0.275 0.0632491
   vertex 0.00178733 0 0.0632491
  endloop
 endfacet
 facet normal -0.981708 0 0.190391
  outer loop
   vertex 0.00178733 0 0.0632491
   vertex 0.00178733 0.275 0.0632491
   vertex 0.000329897 0.275 0.0557342
  endloop
 endfacet
 facet normal -0.981708 0 0.190391
  outer loop
   vertex 0.00178733 0 0.0632491
   vertex 0.000329897 0.275 0.0557342
   vertex 0.000329897 0 0.0557342
  endloop
 endfacet
 facet normal -0.999266 0 0.038303
  outer loop
   vertex 0.000329897 0 0.0557342
   vertex 0.000329897 0.275 0.0557342
   vertex 3.66904e-05 0.275 0.0480849
  endloop
 endfacet
 facet normal -0.999266 0 0.038303
  outer loop
   vertex 0.000329897 0 0.0557342
   vertex 3.66904e-05 0.275 0.0480849
   vertex 3.66904e-05 0 0.0480849
  endloop
 endfacet
 facet normal -0.993402 0 -0.114684
  outer loop
   vertex 3.66904e-05 0 0.0480849
   vertex 3.66904e-05 0.275 0.0480849
   vertex 0.000914585 0.275 0.0404804
  endloop
 endfacet
 facet normal -0.993402 0 -0.114684
  outer loop
   vertex 3.66904e-05 0 0.0480849
   vertex 0.000914585 0.275 0.0404804
   vertex 0.000914585 0 0.0404804
  endloop
 endfacet
 facet normal -0.964253 0 -0.264981
  outer loop
   vertex 0.000914585 0 0.0404804
   vertex 0.000914585 0.275 0.0404804
   vertex 0.002943 0.275 0.0330992
  endloop
 endfacet
 facet normal -0.964253 0 -0.264981
  outer loop
   vertex 0.000914585 0 0.0404804
   vertex 0.002943 0.275 0.0330992
   vertex 0.002943 0 0.0330992
  endloop
 endfacet
 facet normal -0.912504 0 -0.409068
  outer loop
   vertex 0.002943 0 0.0330992
   vertex 0.002943 0.275 0.0330992
   vertex 0.00607439 0.275 0.026114
  endloop
 endfacet
 facet normal -0.912504 0 -0.409068
  outer loop
   vertex 0.002943 0 0.0330992
   vertex 0.00607439 0.275 0.026114
   vertex 0.00607439 0 0.026114
  endloop
 endfacet
 facet normal -0.839365 0 -0.543568
  outer loop
   vertex 0.00607439 0 0.026114
   vertex 0.00607439 0.275 0.026114
   vertex 0.0102354 0.275 0.0196887
  endloop
 endfacet
 facet normal -0.839365 0 -0.543568
  outer loop
   vertex 0.00607439 0 0.026114
   vertex 0.0102354 0.275 0.0196887
   vertex 0.0102354 0 0.0196887
  endloop
 endfacet
 facet normal -0.746553 0 -0.665326
  outer loop
   vertex 0.0102354 0 0.0196887
   vertex 0.0102354 0.275 0.0196887
   vertex 0.0153284 0.275 0.0139739
  endloop
 endfacet
 facet normal -0.746553 0 -0.665326
  outer loop
   vertex 0.0102354 0 0.0196887
   vertex 0.0153284 0.275 0.0139739
   vertex 0.0153284 0 0.0139739
  endloop
 endfacet
 facet normal -0.636243 0 -0.771489
  outer loop
   vertex 0.0153284 0 0.0139739
   vertex 0.0153284 0.275 0.0139739
   vertex 0.0212341 0.275 0.00910353
  endloop
 endfacet
 facet normal -0.636243 0 -0.771489
  outer loop
   vertex 0.0153284 0 0.0139739
   vertex 0.0212341 0.275 0.00910353
   vertex 0.0212341 0 0.00910353
  endloop
 endfacet
 facet normal -0.511019 0 -0.85957
  outer loop
   vertex 0.0212341 0 0.00910353
   vertex 0.0212341 0.275 0.00910353
   vertex 0.027814 0.275 0.00519172
  endloop
 endfacet
 facet normal -0.511019 0 -0.85957
  outer loop
   vertex 0.0212341 0 0.00910353
   vertex 0.027814 0.275 0.00519172
   vertex 0.027814 0 0.00519172
  endloop
 endfacet
 facet normal -0.373817 0 -0.927502
  outer loop
   vertex 0.027814 0 0.00519172
   vertex 0.027814 0.275 0.00519172
   vertex 0.034914 0.275 0.00233018
  endloop
 endfacet
 facet normal -0.373817 0 -0.927502
  outer loop
   vertex 0.027814 0 0.00519172
   vertex 0.034914 0.275 0.00233018
   vertex 0.034914 0 0.00233018
  endloop
 endfacet
 facet normal -0.227853 0 -0.973695
  outer loop
   vertex 0.034914 0 0.00233018
   vertex 0.034914 0.275 0.00233018
   vertex 0.0423675 0.275 0.000585981
  endloop
 endfacet
 facet normal -0.227853 0 -0.973695
  outer loop
   vertex 0.034914 0 0.00233018
   vertex 0.0423675 0.275 0.000585981
   vertex 0.0423675 0 0.000585981
  endloop
 endfacet
 facet normal -0.0765495 0 -0.997066
  outer loop
   vertex 0.0423675 0 0.000585981
   vertex 0.0423675 0.275 0.000585981
   vertex 0.05 0.275 0
  endloop
 endfacet
 facet normal -0.0765495 0 -0.997066
  outer loop
   vertex 0.0423675 0 0.000585981
   vertex 0.05 0.275 0
   vertex 0.05 0 0
  endloop
 endfacet
 facet normal 0.0765495 0 -0.997066
  outer loop
   vertex 0.05 0 0
   vertex 0.05 0.275 0
   vertex 0.0576325 0.275 0.000585981
  endloop
 endfacet
 facet normal 0.0765495 0 -0.997066
  outer loop
   vertex 0.05 0 0
   vertex 0.0576325 0.275 0.000585981
   vertex 0.0576325 0 0.000585981
  endloop
 endfacet
 facet normal 0.227853 0 -0.973695
  outer loop
   vertex 0.0576325 0 0.000585981
   vertex 0.0576325 0.275 0.000585981
   vertex 0.065086 0.275 0.00233018
  endloop
 endfacet
 facet normal 0.227853 0 -0.973695
  outer loop
   vertex 0.0576325 0 0.000585981
   vertex 0.065086 0.275 0.00233018
   vertex 0.065086 0 0.00233018
  endloop
 endfacet
 facet normal 0.373817 0 -0.927502
  outer loop
   vertex 0.065086 0 0.00233018
   vertex 0.065086 0.275 0.00233018
   vertex 0.072186 0.275 0.00519172
  endloop
 endfacet
 facet normal 0.373817 0 -0.927502
  outer loop
   vertex 0.065086 0 0.00233018
   vertex 0.072186 0.275 0.00519172
   vertex 0.072186 0 0.00519172
  endloop
 endfacet
 facet normal 0.511018 0 -0.85957
  outer loop
   vertex 0.072186 0 0.00519172
   vertex 0.072186 0.275 0.00519172
   vertex 0.0787659 0.275 0.00910353
  endloop
 endfacet
 facet normal 0.511018 0 -0.85957
  outer loop
   vertex 0.072186 0 0.00519172
   vertex 0.0787659 0.275 0.00910353
   vertex 0.0787659 0 0.00910353
  endloop
 endfacet
 facet normal 0.636243 0 -0.771489
  outer loop
   vertex 0.0787659 0 0.00910353
   vertex 0.0787659 0.275 0.00910353
   vertex 0.0846716 0.275 0.0139739
  endloop
 endfacet
 facet normal 0.636243 0 -0.771489
  outer loop
   vertex 0.0787659 0 0.00910353
   vertex 0.0846716 0.275 0.0139739
   vertex 0.0846716 0 0.0139739
  endloop
 endfacet
 facet normal 0.746553 0 -0.665326
  outer loop
   vertex 0.0846716 0 0.0139739
   vertex 0.0846716 0.275 0.0139739
   vertex 0.0897646 0.275 0.0196887
  endloop
 endfacet
 facet normal 0.746553 0 -0.665326
  outer loop
   vertex 0.0846716 0 0.0139739
   vertex 0.0897646 0.275 0.0196887
   vertex 0.0897646 0 0.0196887
  endloop
 endfacet
 facet normal 0.839365 0 -0.543568
  outer loop
   vertex 0.0897646 0 0.0196887
   vertex 0.0897646 0.275 0.0196887
   vertex 0.0939256 0.275 0.026114
  endloop
 endfacet
 facet normal 0.839365 0 -0.543568
  outer loop
   vertex 0.0897646 0 0.0196887
   vertex 0.0939256 0.275 0.026114
   vertex 0.0939256 0 0.026114
  endloop
 endfacet
 facet normal 0.912503 0 -0.409069
  outer loop
   vertex 0.0939256 0 0.026114
   vertex 0.0939256 0.275 0.026114
   vertex 0.097057 0.275 0.0330992
  endloop
 endfacet
 facet normal 0.912503 0 -0.409069
  outer loop
   vertex 0.0939256 0 0.026114
   vertex 0.097057 0.275 0.0330992
   vertex 0.097057 0 0.0330992
  endloop
 endfacet
 facet normal 0.964254 0 -0.264981
  outer loop
   vertex 0.097057 0 0.0330992
   vertex 0.097057 0.275 0.0330992
   vertex 0.0990854 0.275 0.0404804
  endloop
 endfacet
 facet normal 0.964254 0 -0.264981
  outer loop
   vertex 0.097057 0 0.0330992
   vertex 0.0990854 0.275 0.0404804
   vertex 0.0990854 0 0.0404804
  endloop
 endfacet
 facet normal 0.993402 0 -0.114683
  outer loop
   vertex 0.0990854 0 0.0404804
   vertex 0.0990854 0.275 0.0404804
   vertex 0.0999633 0.275 0.0480849
  endloop
 endfacet
 facet normal 0.993402 0 -0.114683
  outer loop
   vertex 0.0990854 0 0.0404804
   vertex 0.0999633 0.275 0.0480849
   vertex 0.0999633 0 0.0480849
  endloop
 endfacet
 facet normal 0.999266 -0 0.0383028
  outer loop
   vertex 0.0999633 0 0.0480849
   vertex 0.0999633 0.275 0.0480849
   vertex 0.0996701 0.275 0.0557342
  endloop
 endfacet
 facet normal 0.999266 0 0.0383028
  outer loop
   vertex 0.0999633 0 0.0480849
   vertex 0.0996701 0.275 0.0557342
   vertex 0.0996701 0 0.0557342
  endloop
 endfacet
 facet normal 0.981708 -0 0.190391
  outer loop
   vertex 0.0996701 0 0.0557342
   vertex 0.0996701 0.275 0.0557342
   vertex 0.0982127 0.275 0.0632491
  endloop
 endfacet
 facet normal 0.981708 0 0.190391
  outer loop
   vertex 0.0996701 0 0.0557342
   vertex 0.0982127 0.275 0.0632491
   vertex 0.0982127 0 0.0632491
  endloop
 endfacet
 facet normal 0.94114 -0 0.338017
  outer loop
   vertex 0.0982127 0 0.0632491
   vertex 0.0982127 0.275 0.0632491
   vertex 0.0956252 0.275 0.0704534
  endloop
 endfacet
 facet normal 0.94114 0 0.338017
  outer loop
   vertex 0.0982127 0 0.0632491
   vertex 0.0956252 0.275 0.0704534
   vertex 0.0956252 0 0.0704534
  endloop
 endfacet
 facet normal 0.878512 -0 0.47772
  outer loop
   vertex 0.0956252 0 0.0704534
   vertex 0.0956252 0.275 0.0704534
   vertex 0.0919683 0.275 0.0771784
  endloop
 endfacet
 facet normal 0.878512 0 0.47772
  outer loop
   vertex 0.0956252 0 0.0704534
   vertex 0.0919683 0.275 0.0771784
   vertex 0.0919683 0 0.0771784
  endloop
 endfacet
 facet normal 0.795293 -0 0.606225
  outer loop
   vertex 0.0919683 0 0.0771784
   vertex 0.0919683 0.275 0.0771784
   vertex 0.0873277 0.275 0.0832663
  endloop
 endfacet
 facet normal 0.795293 0 0.606225
  outer loop
   vertex 0.0919683 0 0.0771784
   vertex 0.0873277 0.275 0.0832663
   vertex 0.0873277 0 0.0832663
  endloop
 endfacet
 facet normal 0.693433 -0 0.720521
  outer loop
   vertex 0.0873277 0 0.0832663
   vertex 0.0873277 0.275 0.0832663
   vertex 0.0818121 0.275 0.0885745
  endloop
 endfacet
 facet normal 0.693433 0 0.720521
  outer loop
   vertex 0.0873277 0 0.0832663
   vertex 0.0818121 0.275 0.0885745
   vertex 0.0818121 0 0.0885745
  endloop
 endfacet
 facet normal 0.575318 -0 0.817929
  outer loop
   vertex 0.0818121 0 0.0885745
   vertex 0.0818121 0.275 0.0885745
   vertex 0.0755509 0.275 0.0929785
  endloop
 endfacet
 facet normal 0.575318 0 0.817929
  outer loop
   vertex 0.0818121 0 0.0885745
   vertex 0.0755509 0.275 0.0929785
   vertex 0.0755509 0 0.0929785
  endloop
 endfacet
 facet normal 0.44372 -0 0.896165
  outer loop
   vertex 0.0755509 0 0.0929785
   vertex 0.0755509 0.275 0.0929785
   vertex 0.0686909 0.275 0.0963751
  endloop
 endfacet
 facet normal 0.44372 0 0.896165
  outer loop
   vertex 0.0755509 0 0.0929785
   vertex 0.0686909 0.275 0.0963751
   vertex 0.0686909 0 0.0963751
  endloop
 endfacet
 facet normal 0.301721 -0 0.953396
  outer loop
   vertex 0.0686909 0 0.0963751
   vertex 0.0686909 0.275 0.0963751
   vertex 0.0613927 0.275 0.0986848
  endloop
 endfacet
 facet normal 0.301721 0 0.953396
  outer loop
   vertex 0.0686909 0 0.0963751
   vertex 0.0613927 0.275 0.0986848
   vertex 0.0613927 0 0.0986848
  endloop
 endfacet
 facet normal 0.152649 -0 0.98828
  outer loop
   vertex 0.0613927 0 0.0986848
   vertex 0.0613927 0.275 0.0986848
   vertex 0.0538275 0.275 0.0998533
  endloop
 endfacet
 facet normal 0.152649 0 0.98828
  outer loop
   vertex 0.0613927 0 0.0986848
   vertex 0.0538275 0.275 0.0998533
   vertex 0.0538275 0 0.0998533
  endloop
 endfacet
 facet normal 0.0383016 -0 0.999266
  outer loop
   vertex 0.0538275 0 0.0998533
   vertex 0.0538275 0.275 0.0998533
   vertex 0.05 0 0.1
  endloop
 endfacet
 facet normal -0 1 0
  outer loop
   vertex 0.0386073 0.275 0.0986848
   vertex 0.0461725 0.275 0.0998533
   vertex 0.05 0.275 0.05
  endloop
 endfacet
 facet normal 0 1 -0
  outer loop
   vertex 0.05 0.275 0.05
   vertex 0.0461725 0.275 0.0998533
   vertex 0.05 0.275 0.1
  endloop
 endfacet
 facet normal 0 1 0
  outer loop
   vertex 0.05 0.275 0.05
   vertex 0.05 0.275 0.1
   vertex 0.0538275 0.275 0.0998533
  endloop
 endfacet
 facet normal -0 1 0
  outer loop
   vertex 0.0181879 0.275 0.0885745
   vertex 0.0244491 0.275 0.0929785
   vertex 0.05 0.275 0.05
  endloop
 endfacet
 facet normal 0 1 0
  outer loop
   vertex 0.05 0.275 0.05
   vertex 0.0244491 0.275 0.0929785
   vertex 0.0313091 0.275 0.0963751
  endloop
 endfacet
 facet normal 0 1 0
  outer loop
   vertex 0.05 0.275 0.05
   vertex 0.0313091 0.275 0.0963751
   vertex 0.0386073 0.275 0.0986848
  endloop
 endfacet
 facet normal -0 1 0
  outer loop
   vertex 0.00437482 0.275 0.0704534
   vertex 0.00803173 0.275 0.0771784
   vertex 0.05 0.275 0.05
  endloop
 endfacet
 facet normal 0 1 0
  outer loop
   vertex 0.05 0.275 0.05
   vertex 0.00803173 0.275 0.0771784
   vertex 0.0126723 0.275 0.0832663
  endloop
 endfacet
 facet normal 0 1 0
  outer loop
   vertex 0.05 0.275 0.05
   vertex 0.0126723 0.275 0.0832663
   vertex 0.0181879 0.275 0.0885745
  endloop
 endfacet
 facet normal 0 1 0
  outer loop
   vertex 3.66904e-05 0.275 0.0480849
   vertex 0.000329897 0.275 0.0557342
   vertex 0.05 0.275 0.05
  endloop
 endfacet
 facet normal 0 1 0
  outer loop
   vertex 0.05 0.275 0.05
   vertex 0.000329897 0.275 0.0557342
   vertex 0.00178733 0.275 0.0632491
  endloop
 endfacet
 facet normal 0 1 0
  outer loop
   vertex 0.05 0.275 0.05
   vertex 0.00178733 0.275 0.0632491
   vertex 0.00437482 0.275 0.0704534
  endloop
 endfacet
 facet normal 0 1 -0
  outer loop
   vertex 0.00607439 0.275 0.026114
   vertex 0.002943 0.275 0.0330992
   vertex 0.05 0.275 0.05
  endloop
 endfacet
 facet normal 0 1 0
  outer loop
   vertex 0.05 0.275 0.05
   vertex 0.002943 0.275 0.0330992
   vertex 0.000914585 0.275 0.0404804
  endloop
 endfacet
 facet normal 0 1 0
  outer loop
   vertex 0.05 0.275 0.05
   vertex 0.000914585 0.275 0.0404804
   vertex 3.66904e-05 0.275 0.0480849
  endloop
 endfacet
 facet normal 0 1 -0
  outer loop
   vertex 0.0212341 0.275 0.00910353
   vertex 0.0153284 0.275 0.0139739
   vertex 0.05 0.275 0.05
  endloop
 endfacet
 facet normal 0 1 0
  outer loop
   vertex 0.05 0.275 0.05
   vertex 0.0153284 0.275 0.0139739
   vertex 0.0102354 0.275 0.0196887
  endloop
 endfacet
 facet normal 0 1 0
  outer loop
   vertex 0.05 0.275 0.05
   vertex 0.0102354 0.275 0.0196887
   vertex 0.00607439 0.275 0.026114
  endloop
 endfacet
 facet normal 0 1 -0
  outer loop
   vertex 0.0423675 0.275 0.000585981
   vertex 0.034914 0.275 0.00233018
   vertex 0.05 0.275 0.05
  endloop
 endfacet
 facet normal 0 1 0
  outer loop
   vertex 0.05 0.275 0.05
   vertex 0.034914 0.275 0.00233018
   vertex 0.027814 0.275 0.00519172
  endloop
 endfacet
 facet normal 0 1 0
  outer loop
   vertex 0.05 0.275 0.05
   vertex 0.027814 0.275 0.00519172
   vertex 0.0212341 0.275 0.00910353
  endloop
 endfacet
 facet normal 0 1 0
  outer loop
   vertex 0.065086 0.275 0.00233018
   vertex 0.0576325 0.275 0.000585981
   vertex 0.05 0.275 0.05
  endloop
 endfacet
 facet normal 0 1 0
  outer loop
   vertex 0.05 0.275 0.05
   vertex 0.0576325 0.275 0.000585981
   vertex 0.05 0.275 0
  endloop
 endfacet
 facet normal 0 1 0
  outer loop
   vertex 0.05 0.275 0.05
   vertex 0.05 0.275 0
   vertex 0.0423675 0.275 0.000585981
  endloop
 endfacet
 facet normal 0 1 0
  outer loop
   vertex 0.0846716 0.275 0.0139739
   vertex 0.0787659 0.275 0.00910353
   vertex 0.05 0.275 0.05
  endloop
 endfacet
 facet normal 0 1 0
  outer loop
   vertex 0.05 0.275 0.05
   vertex 0.0787659 0.275 0.00910353
   vertex 0.072186 0.275 0.00519172
  endloop
 endfacet
 facet normal 0 1 0
  outer loop
   vertex 0.05 0.275 0.05
   vertex 0.072186 0.275 0.00519172
   vertex 0.065086 0.275 0.00233018
  endloop
 endfacet
 facet normal 0 1 0
  outer loop
   vertex 0.097057 0.275 0.0330992
   vertex 0.0939256 0.275 0.026114
   vertex 0.05 0.275 0.05
  endloop
 endfacet
 facet normal 0 1 0
  outer loop
   vertex 0.05 0.275 0.05
   vertex 0.0939256 0.275 0.026114
   vertex 0.0897646 0.275 0.0196887
  endloop
 endfacet
 facet normal 0 1 0
  outer loop
   vertex 0.05 0.275 0.05
   vertex 0.0897646 0.275 0.0196887
   vertex 0.0846716 0.275 0.0139739
  endloop
 endfacet
 facet normal 0 1 0
  outer loop
   vertex 0.0996701 0.275 0.0557342
   vertex 0.0999633 0.275 0.0480849
   vertex 0.05 0.275 0.05
  endloop
 endfacet
 facet normal 0 1 0
  outer loop
   vertex 0.05 0.275 0.05
   vertex 0.0999633 0.275 0.0480849
   vertex 0.0990854 0.275 0.0404804
  endloop
 endfacet
 facet normal 0 1 0
  outer loop
   vertex 0.05 0.275 0.05
   vertex 0.0990854 0.275 0.0404804
   vertex 0.097057 0.275 0.0330992
  endloop
 endfacet
 facet normal 0 1 0
  outer loop
   vertex 0.0919683 0.275 0.0771784
   vertex 0.0956252 0.275 0.0704534
   vertex 0.05 0.275 0.05
  endloop
 endfacet
 facet normal 0 1 0
  outer loop
   vertex 0.05 0.275 0.05
   vertex 0.0956252 0.275 0.0704534
   vertex 0.0982127 0.275 0.0632491
  endloop
 endfacet
 facet normal 0 1 0
  outer loop
   vertex 0.05 0.275 0.05
   vertex 0.0982127 0.275 0.0632491
   vertex 0.0996701 0.275 0.0557342
  endloop
 endfacet
 facet normal 0 1 0
  outer loop
   vertex 0.0755509 0.275 0.0929785
   vertex 0.0818121 0.275 0.0885745
   vertex 0.05 0.275 0.05
  endloop
 endfacet
 facet normal 0 1 0
  outer loop
   vertex 0.05 0.275 0.05
   vertex 0.0818121 0.275 0.0885745
   vertex 0.0873277 0.275 0.0832663
  endloop
 endfacet
 facet normal 0 1 0
  outer loop
   vertex 0.05 0.275 0.05
   vertex 0.0873277 0.275 0.0832663
   vertex 0.0919683 0.275 0.0771784
  endloop
 endfacet
 facet normal 0 1 0
  outer loop
   vertex 0.0538275 0.275 0.0998533
   vertex 0.0613927 0.275 0.0986848
   vertex 0.05 0.275 0.05
  endloop
 endfacet
 facet normal 0 1 0
  outer loop
   vertex 0.05 0.275 0.05
   vertex 0.0613927 0.275 0.0986848
   vertex 0.0686909 0.275 0.0963751
  endloop
 endfacet
 facet normal 0 1 0
  outer loop
   vertex 0.05 0.275 0.05
   vertex 0.0686909 0.275 0.0963751
   vertex 0.0755509 0.275 0.0929785
  endloop
 endfacet
 facet normal -0 -1 0
  outer loop
   vertex 0.0613927 0 0.0986848
   vertex 0.0538275 0 0.0998533
   vertex 0.05 0 0.05
  endloop
 endfacet
 facet normal 0 -1 0
  outer loop
   vertex 0.05 0 0.05
   vertex 0.0538275 0 0.0998533
   vertex 0.05 0 0.1
  endloop
 endfacet
 facet normal 0 -1 0
  outer loop
   vertex 0.05 0 0.05
   vertex 0.05 0 0.1
   vertex 0.0461725 0 0.0998533
  endloop
 endfacet
 facet normal -0 -1 0
  outer loop
   vertex 0.0818121 0 0.0885745
   vertex 0.0755509 0 0.0929785
   vertex 0.05 0 0.05
  endloop
 endfacet
 facet normal 0 -1 0
  outer loop
   vertex 0.05 0 0.05
   vertex 0.0755509 0 0.0929785
   vertex 0.0686909 0 0.0963751
  endloop
 endfacet
 facet normal 0 -1 0
  outer loop
   vertex 0.05 0 0.05
   vertex 0.0686909 0 0.0963751
   vertex 0.0613927 0 0.0986848
  endloop
 endfacet
 facet normal -0 -1 0
  outer loop
   vertex 0.0956252 0 0.0704534
   vertex 0.0919683 0 0.0771784
   vertex 0.05 0 0.05
  endloop
 endfacet
 facet normal 0 -1 0
  outer loop
   vertex 0.05 0 0.05
   vertex 0.0919683 0 0.0771784
   vertex 0.0873277 0 0.0832663
  endloop
 endfacet
 facet normal 0 -1 0
  outer loop
   vertex 0.05 0 0.05
   vertex 0.0873277 0 0.0832663
   vertex 0.0818121 0 0.0885745
  endloop
 endfacet
 facet normal 0 -1 0
  outer loop
   vertex 0.0999633 0 0.0480849
   vertex 0.0996701 0 0.0557342
   vertex 0.05 0 0.05
  endloop
 endfacet
 facet normal 0 -1 0
  outer loop
   vertex 0.05 0 0.05
   vertex 0.0996701 0 0.0557342
   vertex 0.0982127 0 0.0632491
  endloop
 endfacet
 facet normal 0 -1 0
  outer loop
   vertex 0.05 0 0.05
   vertex 0.0982127 0 0.0632491
   vertex 0.0956252 0 0.0704534
  endloop
 endfacet
 facet normal 0 -1 0
  outer loop
   vertex 0.0939256 0 0.026114
   vertex 0.097057 0 0.0330992
   vertex 0.05 0 0.05
  endloop
 endfacet
 facet normal 0 -1 0
  outer loop
   vertex 0.05 0 0.05
   vertex 0.097057 0 0.0330992
   vertex 0.0990854 0 0.0404804
  endloop
 endfacet
 facet normal 0 -1 0
  outer loop
   vertex 0.05 0 0.05
   vertex 0.0990854 0 0.0404804
   vertex 0.0999633 0 0.0480849
  endloop
 endfacet
 facet normal 0 -1 0
  outer loop
   vertex 0.0787659 0 0.00910353
   vertex 0.0846716 0 0.0139739
   vertex 0.05 0 0.05
  endloop
 endfacet
 facet normal 0 -1 0
  outer loop
   vertex 0.05 0 0.05
   vertex 0.0846716 0 0.0139739
   vertex 0.0897646 0 0.0196887
  endloop
 endfacet
 facet normal 0 -1 0
  outer loop
   vertex 0.05 0 0.05
   vertex 0.0897646 0 0.0196887
   vertex 0.0939256 0 0.026114
  endloop
 endfacet
 facet normal 0 -1 0
  outer loop
   vertex 0.0576325 0 0.000585981
   vertex 0.065086 0 0.00233018
   vertex 0.05 0 0.05
  endloop
 endfacet
 facet normal 0 -1 0
  outer loop
   vertex 0.05 0 0.05
   vertex 0.065086 0 0.00233018
   vertex 0.072186 0 0.00519172
  endloop
 endfacet
 facet normal 0 -1 0
  outer loop
   vertex 0.05 0 0.05
   vertex 0.072186 0 0.00519172
   vertex 0.0787659 0 0.00910353
  endloop
 endfacet
 facet normal 0 -1 0
  outer loop
   vertex 0.034914 0 0.00233018
   vertex 0.0423675 0 0.000585981
   vertex 0.05 0 0.05
  endloop
 endfacet
 facet normal 0 -1 -0
  outer loop
   vertex 0.05 0 0.05
   vertex 0.0423675 0 0.000585981
   vertex 0.05 0 0
  endloop
 endfacet
 facet normal 0 -1 0
  outer loop
   vertex 0.05 0 0.05
   vertex 0.05 0 0
   vertex 0.0576325 0 0.000585981
  endloop
 endfacet
 facet normal 0 -1 0
  outer loop
   vertex 0.0153284 0 0.0139739
   vertex 0.0212341 0 0.00910353
   vertex 0.05 0 0.05
  endloop
 endfacet
 facet normal 0 -1 0
  outer loop
   vertex 0.05 0 0.05
   vertex 0.0212341 0 0.00910353
   vertex 0.027814 0 0.00519172
  endloop
 endfacet
 facet normal 0 -1 0
  outer loop
   vertex 0.05 0 0.05
   vertex 0.027814 0 0.00519172
   vertex 0.034914 0 0.00233018
  endloop
 endfacet
 facet normal 0 -1 0
  outer loop
   vertex 0.002943 0 0.0330992
   vertex 0.00607439 0 0.026114
   vertex 0.05 0 0.05
  endloop
 endfacet
 facet normal 0 -1 0
  outer loop
   vertex 0.05 0 0.05
   vertex 0.00607439 0 0.026114
   vertex 0.0102354 0 0.0196887
  endloop
 endfacet
 facet normal 0 -1 0
  outer loop
   vertex 0.05 0 0.05
   vertex 0.0102354 0 0.0196887
   vertex 0.0153284 0 0.0139739
  endloop
 endfacet
 facet normal 0 -1 -0
  outer loop
   vertex 0.000329897 0 0.0557342
   vertex 3.66904e-05 0 0.0480849
   vertex 0.05 0 0.05
  endloop
 endfacet
 facet normal 0 -1 0
  outer loop
   vertex 0.05 0 0.05
   vertex 3.66904e-05 0 0.0480849
   vertex 0.000914585 0 0.0404804
  endloop
 endfacet
 facet normal 0 -1 0
  outer loop
   vertex 0.05 0 0.05
   vertex 0.000914585 0 0.0404804
   vertex 0.002943 0 0.0330992
  endloop
 endfacet
 facet normal 0 -1 -0
  outer loop
   vertex 0.00803173 0 0.0771784
   vertex 0.00437482 0 0.0704534
   vertex 0.05 0 0.05
  endloop
 endfacet
 facet normal 0 -1 0
  outer loop
   vertex 0.05 0 0.05
   vertex 0.00437482 0 0.0704534
   vertex 0.00178733 0 0.0632491
  endloop
 endfacet
 facet normal 0 -1 0
  outer loop
   vertex 0.05 0 0.05
   vertex 0.00178733 0 0.0632491
   vertex 0.000329897 0 0.0557342
  endloop
 endfacet
 facet normal 0 -1 -0
  outer loop
   vertex 0.0244491 0 0.0929785
   vertex 0.0181879 0 0.0885745
   vertex 0.05 0 0.05
  endloop
 endfacet
 facet normal 0 -1 0
  outer loop
   vertex 0.05 0 0.05
   vertex 0.0181879 0 0.0885745
   vertex 0.0126723 0 0.0832663
  endloop
 endfacet
 facet normal 0 -1 0
  outer loop
   vertex 0.05 0 0.05
   vertex 0.0126723 0 0.0832663
   vertex 0.00803173 0 0.0771784
  endloop
 endfacet
 facet normal 0 -1 -0
  outer loop
   vertex 0.0461725 0 0.0998533
   vertex 0.0386073 0 0.0986848
   vertex 0.05 0 0.05
  endloop
 endfacet
 facet normal 0 -1 0
  outer loop
   vertex 0.05 0 0.05
   vertex 0.0386073 0 0.0986848
   vertex 0.0313091 0 0.0963751
  endloop
 endfacet
 facet normal 0 -1 0
  outer loop
   vertex 0.05 0 0.05
   vertex 0.0313091 0 0.0963751
   vertex 0.0244491 0 0.0929785
  endloop
 endfacet
endsolid zone0
