solid zone0
 facet normal 0 -1 -0
  outer loop
   vertex 0.6 0 1.2
   vertex 0.563063 0 1.19886
   vertex 0.6 0 0.6
  endloop
 endfacet
 facet normal -0 -1 0
  outer loop
   vertex 0.781892 0 1.17177
   vertex 0.71025 0 1.18978
   vertex 0.6 0 0.6
  endloop
 endfacet
 facet normal 0 -1 0
  outer loop
   vertex 0.6 0 0.6
   vertex 0.71025 0 1.18978
   vertex 0.636937 0 1.19886
  endloop
 endfacet
 facet normal 0 -1 0
  outer loop
   vertex 0.6 0 0.6
   vertex 0.636937 0 1.19886
   vertex 0.6 0 1.2
  endloop
 endfacet
 facet normal -0 -1 0
  outer loop
   vertex 0.976154 0 1.06745
   vertex 0.915859 0 1.11013
   vertex 0.6 0 0.6
  endloop
 endfacet
 facet normal 0 -1 0
  outer loop
   vertex 0.6 0 0.6
   vertex 0.915859 0 1.11013
   vertex 0.850776 0 1.14508
  endloop
 endfacet
 facet normal 0 -1 0
  outer loop
   vertex 0.6 0 0.6
   vertex 0.850776 0 1.14508
   vertex 0.781892 0 1.17177
  endloop
 endfacet
 facet normal -0 -1 0
  outer loop
   vertex 1.11962 0 0.9
   vertex 1.07881 0 0.961581
   vertex 0.6 0 0.6
  endloop
 endfacet
 facet normal 0 -1 0
  outer loop
   vertex 0.6 0 0.6
   vertex 1.07881 0 0.961581
   vertex 1.03075 0 1.01768
  endloop
 endfacet
 facet normal 0 -1 0
  outer loop
   vertex 0.6 0 0.6
   vertex 1.03075 0 1.01768
   vertex 0.976154 0 1.06745
  endloop
 endfacet
 facet normal -0 -1 0
  outer loop
   vertex 1.1929 0 0.692035
   vertex 1.1771 0 0.764198
   vertex 0.6 0 0.6
  endloop
 endfacet
 facet normal 0 -1 0
  outer loop
   vertex 0.6 0 0.6
   vertex 1.1771 0 0.764198
   vertex 1.15254 0 0.833872
  endloop
 endfacet
 facet normal 0 -1 0
  outer loop
   vertex 0.6 0 0.6
   vertex 1.15254 0 0.833872
   vertex 1.11962 0 0.9
  endloop
 endfacet
 facet normal 0 -1 0
  outer loop
   vertex 1.18611 0 0.47164
   vertex 1.19744 0 0.544639
   vertex 0.6 0 0.6
  endloop
 endfacet
 facet normal 0 -1 0
  outer loop
   vertex 0.6 0 0.6
   vertex 1.19744 0 0.544639
   vertex 1.19972 0 0.618477
  endloop
 endfacet
 facet normal 0 -1 0
  outer loop
   vertex 0.6 0 0.6
   vertex 1.19972 0 0.618477
   vertex 1.1929 0 0.692035
  endloop
 endfacet
 facet normal 0 -1 0
  outer loop
   vertex 1.10016 0 0.268581
   vertex 1.1371 0 0.332557
   vertex 0.6 0 0.6
  endloop
 endfacet
 facet normal 0 -1 0
  outer loop
   vertex 0.6 0 0.6
   vertex 1.1371 0 0.332557
   vertex 1.16589 0 0.400587
  endloop
 endfacet
 facet normal 0 -1 0
  outer loop
   vertex 0.6 0 0.6
   vertex 1.16589 0 0.400587
   vertex 1.18611 0 0.47164
  endloop
 endfacet
 facet normal 0 -1 0
  outer loop
   vertex 0.946664 0 0.110282
   vertex 1.00422 0 0.156595
   vertex 0.6 0 0.6
  endloop
 endfacet
 facet normal 0 -1 0
  outer loop
   vertex 0.6 0 0.6
   vertex 1.00422 0 0.156595
   vertex 1.05564 0 0.209629
  endloop
 endfacet
 facet normal 0 -1 0
  outer loop
   vertex 0.6 0 0.6
   vertex 1.05564 0 0.209629
   vertex 1.10016 0 0.268581
  endloop
 endfacet
 facet normal 0 -1 0
  outer loop
   vertex 0.746348 0 0.0181218
   vertex 0.816745 0 0.0405167
   vertex 0.6 0 0.6
  endloop
 endfacet
 facet normal 0 -1 0
  outer loop
   vertex 0.6 0 0.6
   vertex 0.816745 0 0.0405167
   vertex 0.883856 0 0.0713927
  endloop
 endfacet
 facet normal 0 -1 0
  outer loop
   vertex 0.6 0 0.6
   vertex 0.883856 0 0.0713927
   vertex 0.946664 0 0.110282
  endloop
 endfacet
 facet normal 0 -1 0
  outer loop
   vertex 0.526267 0 0.00454772
   vertex 0.6 0 0
   vertex 0.6 0 0.6
  endloop
 endfacet
 facet normal 0 -1 0
  outer loop
   vertex 0.6 0 0.6
   vertex 0.6 0 0
   vertex 0.673733 0 0.00454772
  endloop
 endfacet
 facet normal 0 -1 0
  outer loop
   vertex 0.6 0 0.6
   vertex 0.673733 0 0.00454772
   vertex 0.746348 0 0.0181218
  endloop
 endfacet
 facet normal 0 -1 0
  outer loop
   vertex 0.316144 0 0.0713927
   vertex 0.383255 0 0.0405167
   vertex 0.6 0 0.6
  endloop
 endfacet
 facet normal 0 -1 0
  outer loop
   vertex 0.6 0 0.6
   vertex 0.383255 0 0.0405167
   vertex 0.453652 0 0.0181218
  endloop
 endfacet
 facet normal 0 -1 0
  outer loop
   vertex 0.6 0 0.6
   vertex 0.453652 0 0.0181218
   vertex 0.526267 0 0.00454772
  endloop
 endfacet
 facet normal 0 -1 0
  outer loop
   vertex 0.144357 0 0.209629
   vertex 0.195783 0 0.156595
   vertex 0.6 0 0.6
  endloop
 endfacet
 facet normal 0 -1 0
  outer loop
   vertex 0.6 0 0.6
   vertex 0.195783 0 0.156595
   vertex 0.253336 0 0.110282
  endloop
 endfacet
 facet normal 0 -1 0
  outer loop
   vertex 0.6 0 0.6
   vertex 0.253336 0 0.110282
   vertex 0.316144 0 0.0713927
  endloop
 endfacet
 facet normal 0 -1 0
  outer loop
   vertex 0.0341074 0 0.400587
   vertex 0.062902 0 0.332557
   vertex 0.6 0 0.6
  endloop
 endfacet
 facet normal 0 -1 0
  outer loop
   vertex 0.6 0 0.6
   vertex 0.062902 0 0.332557
   vertex 0.0998386 0 0.268581
  endloop
 endfacet
 facet normal 0 -1 0
  outer loop
   vertex 0.6 0 0.6
   vertex 0.0998386 0 0.268581
   vertex 0.144357 0 0.209629
  endloop
 endfacet
 facet normal 0 -1 0
  outer loop
   vertex 0.000284612 0 0.618477
   vertex 0.00255954 0 0.544639
   vertex 0.6 0 0.6
  endloop
 endfacet
 facet normal 0 -1 0
  outer loop
   vertex 0.6 0 0.6
   vertex 0.00255954 0 0.544639
   vertex 0.013891 0 0.47164
  endloop
 endfacet
 facet normal 0 -1 0
  outer loop
   vertex 0.6 0 0.6
   vertex 0.013891 0 0.47164
   vertex 0.0341074 0 0.400587
  endloop
 endfacet
 facet normal 0 -1 -0
  outer loop
   vertex 0.0474567 0 0.833872
   vertex 0.0229046 0 0.764198
   vertex 0.6 0 0.6
  endloop
 endfacet
 facet normal 0 -1 0
  outer loop
   vertex 0.6 0 0.6
   vertex 0.0229046 0 0.764198
   vertex 0.00710076 0 0.692035
  endloop
 endfacet
 facet normal 0 -1 0
  outer loop
   vertex 0.6 0 0.6
   vertex 0.00710076 0 0.692035
   vertex 0.000284612 0 0.618477
  endloop
 endfacet
 facet normal 0 -1 -0
  outer loop
   vertex 0.169253 0 1.01768
   vertex 0.12119 0 0.961581
   vertex 0.6 0 0.6
  endloop
 endfacet
 facet normal 0 -1 0
  outer loop
   vertex 0.6 0 0.6
   vertex 0.12119 0 0.961581
   vertex 0.0803848 0 0.9
  endloop
 endfacet
 facet normal 0 -1 0
  outer loop
   vertex 0.6 0 0.6
   vertex 0.0803848 0 0.9
   vertex 0.0474567 0 0.833872
  endloop
 endfacet
 facet normal 0 -1 -0
  outer loop
   vertex 0.349224 0 1.14508
   vertex 0.284141 0 1.11013
   vertex 0.6 0 0.6
  endloop
 endfacet
 facet normal 0 -1 0
  outer loop
   vertex 0.6 0 0.6
   vertex 0.284141 0 1.11013
   vertex 0.223846 0 1.06745
  endloop
 endfacet
 facet normal 0 -1 0
  outer loop
   vertex 0.6 0 0.6
   vertex 0.223846 0 1.06745
   vertex 0.169253 0 1.01768
  endloop
 endfacet
 facet normal 0 -1 -0
  outer loop
   vertex 0.563063 0 1.19886
   vertex 0.48975 0 1.18978
   vertex 0.6 0 0.6
  endloop
 endfacet
 facet normal 0 -1 0
  outer loop
   vertex 0.6 0 0.6
   vertex 0.48975 0 1.18978
   vertex 0.418108 0 1.17177
  endloop
 endfacet
 facet normal 0 -1 0
  outer loop
   vertex 0.6 0 0.6
   vertex 0.418108 0 1.17177
   vertex 0.349224 0 1.14508
  endloop
 endfacet
 facet normal -1 0 0
  outer loop
   vertex 0 1.495 0.6
   vertex 0 1.095 0.6
   vertex 0 1.495 1.4
  endloop
 endfacet
 facet normal -1 -0 0
  outer loop
   vertex 0 1.495 1.4
   vertex 0 1.095 0.6
   vertex 0 1.095 1.4
  endloop
 endfacet
 facet normal -0.999877 -0.00311587 0.0154016
  outer loop
   vertex 0.000284612 1.095 0.618477
   vertex 0 1.095 0.6
   vertex 0.00255954 0 0.544639
  endloop
 endfacet
 facet normal -0.999526 0 -0.0307951
  outer loop
   vertex 0.00255954 0 0.544639
   vertex 0.000284612 0 0.618477
   vertex 0.000284612 1.095 0.618477
  endloop
 endfacet
 facet normal -0.995734 0 0.0922683
  outer loop
   vertex 0.000284612 1.095 0.618477
   vertex 0.000284612 0 0.618477
   vertex 0.00710076 0 0.692035
  endloop
 endfacet
 facet normal -0.995734 0 0.0922683
  outer loop
   vertex 0.000284612 1.095 0.618477
   vertex 0.00710076 0 0.692035
   vertex 0.00710076 1.095 0.692035
  endloop
 endfacet
 facet normal -0.976848 0 0.213933
  outer loop
   vertex 0.00710076 1.095 0.692035
   vertex 0.00710076 0 0.692035
   vertex 0.0229046 0 0.764198
  endloop
 endfacet
 facet normal -0.976848 0 0.213933
  outer loop
   vertex 0.00710076 1.095 0.692035
   vertex 0.0229046 0 0.764198
   vertex 0.0229046 1.095 0.764198
  endloop
 endfacet
 facet normal -0.943154 0 0.332355
  outer loop
   vertex 0.0229046 1.095 0.764198
   vertex 0.0229046 0 0.764198
   vertex 0.0474567 0 0.833872
  endloop
 endfacet
 facet normal -0.943154 0 0.332355
  outer loop
   vertex 0.0229046 1.095 0.764198
   vertex 0.0474567 0 0.833872
   vertex 0.0474567 1.095 0.833872
  endloop
 endfacet
 facet normal -0.895164 0 0.445738
  outer loop
   vertex 0.0474567 1.095 0.833872
   vertex 0.0474567 0 0.833872
   vertex 0.0803848 0 0.9
  endloop
 endfacet
 facet normal -0.895164 0 0.445738
  outer loop
   vertex 0.0474567 1.095 0.833872
   vertex 0.0803848 0 0.9
   vertex 0.0803848 1.095 0.9
  endloop
 endfacet
 facet normal -0.824881 0 0.565306
  outer loop
   vertex 0.12119 1.495 0.961581
   vertex 0.09 1.495 0.91607
   vertex 0.09 1.095 0.91607
  endloop
 endfacet
 facet normal -0.858117 0 0.513455
  outer loop
   vertex 0.0803848 1.095 0.9
   vertex 0.0803848 0 0.9
   vertex 0.09 1.095 0.91607
  endloop
 endfacet
 facet normal -0.833602 -0.000786289 0.552365
  outer loop
   vertex 0.09 1.095 0.91607
   vertex 0.0803848 0 0.9
   vertex 0.12119 0 0.961581
  endloop
 endfacet
 facet normal -0.824881 0 0.565306
  outer loop
   vertex 0.09 1.095 0.91607
   vertex 0.12119 0 0.961581
   vertex 0.12119 1.495 0.961581
  endloop
 endfacet
 facet normal -0.759405 0 0.650619
  outer loop
   vertex 0.12119 1.495 0.961581
   vertex 0.12119 0 0.961581
   vertex 0.169253 0 1.01768
  endloop
 endfacet
 facet normal -0.759405 0 0.650619
  outer loop
   vertex 0.12119 1.495 0.961581
   vertex 0.169253 0 1.01768
   vertex 0.169253 1.495 1.01768
  endloop
 endfacet
 facet normal -0.673696 0 0.739009
  outer loop
   vertex 0.169253 1.495 1.01768
   vertex 0.169253 0 1.01768
   vertex 0.223846 0 1.06745
  endloop
 endfacet
 facet normal -0.673696 0 0.739009
  outer loop
   vertex 0.169253 1.495 1.01768
   vertex 0.223846 0 1.06745
   vertex 0.223846 1.495 1.06745
  endloop
 endfacet
 facet normal -0.577774 0 0.816197
  outer loop
   vertex 0.223846 1.495 1.06745
   vertex 0.223846 0 1.06745
   vertex 0.284141 0 1.11013
  endloop
 endfacet
 facet normal -0.577774 0 0.816197
  outer loop
   vertex 0.223846 1.495 1.06745
   vertex 0.284141 0 1.11013
   vertex 0.284141 1.495 1.11013
  endloop
 endfacet
 facet normal -0.473093 0 0.881012
  outer loop
   vertex 0.284141 1.495 1.11013
   vertex 0.284141 0 1.11013
   vertex 0.349224 0 1.14508
  endloop
 endfacet
 facet normal -0.473093 0 0.881012
  outer loop
   vertex 0.284141 1.495 1.11013
   vertex 0.349224 0 1.14508
   vertex 0.349224 1.495 1.14508
  endloop
 endfacet
 facet normal -0.361242 0 0.932472
  outer loop
   vertex 0.349224 1.495 1.14508
   vertex 0.349224 0 1.14508
   vertex 0.418108 0 1.17177
  endloop
 endfacet
 facet normal -0.361242 0 0.932472
  outer loop
   vertex 0.349224 1.495 1.14508
   vertex 0.418108 0 1.17177
   vertex 0.418108 1.495 1.17177
  endloop
 endfacet
 facet normal -0.243912 0 0.969797
  outer loop
   vertex 0.418108 1.495 1.17177
   vertex 0.418108 0 1.17177
   vertex 0.48975 0 1.18978
  endloop
 endfacet
 facet normal -0.243912 0 0.969797
  outer loop
   vertex 0.418108 1.495 1.17177
   vertex 0.48975 0 1.18978
   vertex 0.48975 1.495 1.18978
  endloop
 endfacet
 facet normal -0.12289 0 0.99242
  outer loop
   vertex 0.48975 1.495 1.18978
   vertex 0.48975 0 1.18978
   vertex 0.563063 0 1.19886
  endloop
 endfacet
 facet normal -0.12289 0 0.99242
  outer loop
   vertex 0.48975 1.495 1.18978
   vertex 0.563063 0 1.19886
   vertex 0.563063 1.495 1.19886
  endloop
 endfacet
 facet normal -0.0307934 0 0.999526
  outer loop
   vertex 0.563063 1.495 1.19886
   vertex 0.563063 0 1.19886
   vertex 0.6 0 1.2
  endloop
 endfacet
 facet normal -0 0.000761163 1
  outer loop
   vertex 0.563063 1.495 1.19886
   vertex 0.6 0 1.2
   vertex 0.636937 1.495 1.19886
  endloop
 endfacet
 facet normal 0.0307933 0 0.999526
  outer loop
   vertex 0.6 0 1.2
   vertex 0.636937 0 1.19886
   vertex 0.636937 1.495 1.19886
  endloop
 endfacet
 facet normal 0.12289 0 0.99242
  outer loop
   vertex 0.636937 1.495 1.19886
   vertex 0.636937 0 1.19886
   vertex 0.71025 0 1.18978
  endloop
 endfacet
 facet normal 0.12289 0 0.99242
  outer loop
   vertex 0.636937 1.495 1.19886
   vertex 0.71025 0 1.18978
   vertex 0.71025 1.495 1.18978
  endloop
 endfacet
 facet normal 0.243913 0 0.969797
  outer loop
   vertex 0.71025 1.495 1.18978
   vertex 0.71025 0 1.18978
   vertex 0.781892 0 1.17177
  endloop
 endfacet
 facet normal 0.243913 0 0.969797
  outer loop
   vertex 0.71025 1.495 1.18978
   vertex 0.781892 0 1.17177
   vertex 0.781892 1.495 1.17177
  endloop
 endfacet
 facet normal 0.361241 0 0.932472
  outer loop
   vertex 0.781892 1.495 1.17177
   vertex 0.781892 0 1.17177
   vertex 0.850776 0 1.14508
  endloop
 endfacet
 facet normal 0.361241 0 0.932472
  outer loop
   vertex 0.781892 1.495 1.17177
   vertex 0.850776 0 1.14508
   vertex 0.850776 1.495 1.14508
  endloop
 endfacet
 facet normal 0.473093 0 0.881012
  outer loop
   vertex 0.850776 1.495 1.14508
   vertex 0.850776 0 1.14508
   vertex 0.915859 0 1.11013
  endloop
 endfacet
 facet normal 0.473093 0 0.881012
  outer loop
   vertex 0.850776 1.495 1.14508
   vertex 0.915859 0 1.11013
   vertex 0.915859 1.495 1.11013
  endloop
 endfacet
 facet normal 0.577774 0 0.816196
  outer loop
   vertex 0.915859 1.495 1.11013
   vertex 0.915859 0 1.11013
   vertex 0.976154 0 1.06745
  endloop
 endfacet
 facet normal 0.577774 0 0.816196
  outer loop
   vertex 0.915859 1.495 1.11013
   vertex 0.976154 0 1.06745
   vertex 0.976154 1.495 1.06745
  endloop
 endfacet
 facet normal 0.673696 0 0.739009
  outer loop
   vertex 0.976154 1.495 1.06745
   vertex 0.976154 0 1.06745
   vertex 1.03075 0 1.01768
  endloop
 endfacet
 facet normal 0.673696 0 0.739009
  outer loop
   vertex 0.976154 1.495 1.06745
   vertex 1.03075 0 1.01768
   vertex 1.03075 1.495 1.01768
  endloop
 endfacet
 facet normal 0.759404 0 0.650619
  outer loop
   vertex 1.03075 1.495 1.01768
   vertex 1.03075 0 1.01768
   vertex 1.07881 0 0.961581
  endloop
 endfacet
 facet normal 0.759404 0 0.650619
  outer loop
   vertex 1.03075 1.495 1.01768
   vertex 1.07881 0 0.961581
   vertex 1.07881 1.495 0.961581
  endloop
 endfacet
 facet normal 0.833603 0 0.552364
  outer loop
   vertex 1.07881 1.495 0.961581
   vertex 1.07881 0 0.961581
   vertex 1.11962 0 0.9
  endloop
 endfacet
 facet normal 0.833603 0 0.552364
  outer loop
   vertex 1.07881 1.495 0.961581
   vertex 1.11962 0 0.9
   vertex 1.11962 1.495 0.9
  endloop
 endfacet
 facet normal 0.895163 0 0.445738
  outer loop
   vertex 1.11962 1.495 0.9
   vertex 1.11962 0 0.9
   vertex 1.15254 0 0.833872
  endloop
 endfacet
 facet normal 0.895163 0 0.445738
  outer loop
   vertex 1.11962 1.495 0.9
   vertex 1.15254 0 0.833872
   vertex 1.15254 1.495 0.833872
  endloop
 endfacet
 facet normal 0.943154 0 0.332355
  outer loop
   vertex 1.15254 1.495 0.833872
   vertex 1.15254 0 0.833872
   vertex 1.1771 0 0.764198
  endloop
 endfacet
 facet normal 0.943154 0 0.332355
  outer loop
   vertex 1.15254 1.495 0.833872
   vertex 1.1771 0 0.764198
   vertex 1.1771 1.495 0.764198
  endloop
 endfacet
 facet normal 0.976848 0 0.213932
  outer loop
   vertex 1.1771 1.495 0.764198
   vertex 1.1771 0 0.764198
   vertex 1.1929 0 0.692035
  endloop
 endfacet
 facet normal 0.976848 0 0.213932
  outer loop
   vertex 1.1771 1.495 0.764198
   vertex 1.1929 0 0.692035
   vertex 1.1929 1.495 0.692035
  endloop
 endfacet
 facet normal 0.995734 0 0.0922685
  outer loop
   vertex 1.1929 1.495 0.692035
   vertex 1.1929 0 0.692035
   vertex 1.19972 0 0.618477
  endloop
 endfacet
 facet normal 0.995734 0 0.0922685
  outer loop
   vertex 1.1929 1.495 0.692035
   vertex 1.19972 0 0.618477
   vertex 1.19972 1.495 0.618477
  endloop
 endfacet
 facet normal 0.999526 0 -0.0307948
  outer loop
   vertex 1.19972 1.495 0.618477
   vertex 1.19972 0 0.618477
   vertex 1.19744 0 0.544639
  endloop
 endfacet
 facet normal 0.999526 0 -0.0307948
  outer loop
   vertex 1.19972 1.495 0.618477
   vertex 1.19744 0 0.544639
   vertex 1.19744 1.495 0.544639
  endloop
 endfacet
 facet normal 0.988165 0 -0.153392
  outer loop
   vertex 1.19744 1.495 0.544639
   vertex 1.19744 0 0.544639
   vertex 1.18611 0 0.47164
  endloop
 endfacet
 facet normal 0.988165 0 -0.153392
  outer loop
   vertex 1.19744 1.495 0.544639
   vertex 1.18611 0 0.47164
   vertex 1.18611 1.495 0.47164
  endloop
 endfacet
 facet normal 0.961826 0 -0.273663
  outer loop
   vertex 1.18611 1.495 0.47164
   vertex 1.18611 0 0.47164
   vertex 1.16589 0 0.400587
  endloop
 endfacet
 facet normal 0.961826 0 -0.273663
  outer loop
   vertex 1.18611 1.495 0.47164
   vertex 1.16589 0 0.400587
   vertex 1.16589 1.495 0.400587
  endloop
 endfacet
 facet normal 0.920905 0 -0.389786
  outer loop
   vertex 1.16589 1.495 0.400587
   vertex 1.16589 0 0.400587
   vertex 1.1371 0 0.332557
  endloop
 endfacet
 facet normal 0.920905 0 -0.389786
  outer loop
   vertex 1.16589 1.495 0.400587
   vertex 1.1371 0 0.332557
   vertex 1.1371 1.495 0.332557
  endloop
 endfacet
 facet normal 0.866025 0 -0.500001
  outer loop
   vertex 1.1371 1.495 0.332557
   vertex 1.1371 0 0.332557
   vertex 1.10016 0 0.268581
  endloop
 endfacet
 facet normal 0.866025 0 -0.500001
  outer loop
   vertex 1.1371 1.495 0.332557
   vertex 1.10016 0 0.268581
   vertex 1.10016 1.495 0.268581
  endloop
 endfacet
 facet normal 0.798018 0 -0.602634
  outer loop
   vertex 1.10016 1.495 0.268581
   vertex 1.10016 0 0.268581
   vertex 1.05564 0 0.209629
  endloop
 endfacet
 facet normal 0.798018 0 -0.602634
  outer loop
   vertex 1.10016 1.495 0.268581
   vertex 1.05564 0 0.209629
   vertex 1.05564 1.495 0.209629
  endloop
 endfacet
 facet normal 0.717912 0 -0.696134
  outer loop
   vertex 1.05564 1.495 0.209629
   vertex 1.05564 0 0.209629
   vertex 1.00422 0 0.156595
  endloop
 endfacet
 facet normal 0.717912 0 -0.696134
  outer loop
   vertex 1.05564 1.495 0.209629
   vertex 1.00422 0 0.156595
   vertex 1.00422 1.495 0.156595
  endloop
 endfacet
 facet normal 0.626924 0 -0.779081
  outer loop
   vertex 1.00422 1.495 0.156595
   vertex 1.00422 0 0.156595
   vertex 0.946664 0 0.110282
  endloop
 endfacet
 facet normal 0.626924 0 -0.779081
  outer loop
   vertex 1.00422 1.495 0.156595
   vertex 0.946664 0 0.110282
   vertex 0.946664 1.495 0.110282
  endloop
 endfacet
 facet normal 0.526432 0 -0.850217
  outer loop
   vertex 0.946664 1.495 0.110282
   vertex 0.946664 0 0.110282
   vertex 0.883856 0 0.0713927
  endloop
 endfacet
 facet normal 0.526432 0 -0.850217
  outer loop
   vertex 0.946664 1.495 0.110282
   vertex 0.883856 0 0.0713927
   vertex 0.883856 1.495 0.0713927
  endloop
 endfacet
 facet normal 0.417961 0 -0.908465
  outer loop
   vertex 0.883856 1.495 0.0713927
   vertex 0.883856 0 0.0713927
   vertex 0.816745 0 0.0405167
  endloop
 endfacet
 facet normal 0.417961 0 -0.908465
  outer loop
   vertex 0.883856 1.495 0.0713927
   vertex 0.816745 0 0.0405167
   vertex 0.816745 1.495 0.0405167
  endloop
 endfacet
 facet normal 0.303153 0 -0.952942
  outer loop
   vertex 0.816745 1.495 0.0405167
   vertex 0.816745 0 0.0405167
   vertex 0.746348 0 0.0181218
  endloop
 endfacet
 facet normal 0.303153 0 -0.952942
  outer loop
   vertex 0.816745 1.495 0.0405167
   vertex 0.746348 0 0.0181218
   vertex 0.746348 1.495 0.0181218
  endloop
 endfacet
 facet normal 0.183749 0 -0.982973
  outer loop
   vertex 0.746348 1.495 0.0181218
   vertex 0.746348 0 0.0181218
   vertex 0.673733 0 0.00454772
  endloop
 endfacet
 facet normal 0.183749 0 -0.982973
  outer loop
   vertex 0.746348 1.495 0.0181218
   vertex 0.673733 0 0.00454772
   vertex 0.673733 1.495 0.00454772
  endloop
 endfacet
 facet normal 0.0615612 0 -0.998103
  outer loop
   vertex 0.673733 1.495 0.00454772
   vertex 0.673733 0 0.00454772
   vertex 0.6 0 0
  endloop
 endfacet
 facet normal 0.0615612 0 -0.998103
  outer loop
   vertex 0.673733 1.495 0.00454772
   vertex 0.6 0 0
   vertex 0.6 1.495 0
  endloop
 endfacet
 facet normal -0.0615612 -0 -0.998103
  outer loop
   vertex 0.6 1.495 0
   vertex 0.6 0 0
   vertex 0.526267 0 0.00454772
  endloop
 endfacet
 facet normal -0.0615612 0 -0.998103
  outer loop
   vertex 0.6 1.495 0
   vertex 0.526267 0 0.00454772
   vertex 0.526267 1.495 0.00454772
  endloop
 endfacet
 facet normal -0.183749 -0 -0.982973
  outer loop
   vertex 0.526267 1.495 0.00454772
   vertex 0.526267 0 0.00454772
   vertex 0.453652 0 0.0181218
  endloop
 endfacet
 facet normal -0.183749 0 -0.982973
  outer loop
   vertex 0.526267 1.495 0.00454772
   vertex 0.453652 0 0.0181218
   vertex 0.453652 1.495 0.0181218
  endloop
 endfacet
 facet normal -0.303153 -0 -0.952942
  outer loop
   vertex 0.453652 1.495 0.0181218
   vertex 0.453652 0 0.0181218
   vertex 0.383255 0 0.0405167
  endloop
 endfacet
 facet normal -0.303153 0 -0.952942
  outer loop
   vertex 0.453652 1.495 0.0181218
   vertex 0.383255 0 0.0405167
   vertex 0.383255 1.495 0.0405167
  endloop
 endfacet
 facet normal -0.417961 -0 -0.908465
  outer loop
   vertex 0.383255 1.495 0.0405167
   vertex 0.383255 0 0.0405167
   vertex 0.316144 0 0.0713927
  endloop
 endfacet
 facet normal -0.417961 0 -0.908465
  outer loop
   vertex 0.383255 1.495 0.0405167
   vertex 0.316144 0 0.0713927
   vertex 0.316144 1.495 0.0713927
  endloop
 endfacet
 facet normal -0.526432 -0 -0.850217
  outer loop
   vertex 0.316144 1.495 0.0713927
   vertex 0.316144 0 0.0713927
   vertex 0.253336 0 0.110282
  endloop
 endfacet
 facet normal -0.526432 0 -0.850217
  outer loop
   vertex 0.316144 1.495 0.0713927
   vertex 0.253336 0 0.110282
   vertex 0.253336 1.495 0.110282
  endloop
 endfacet
 facet normal -0.626924 -0 -0.779081
  outer loop
   vertex 0.253336 1.495 0.110282
   vertex 0.253336 0 0.110282
   vertex 0.195783 0 0.156595
  endloop
 endfacet
 facet normal -0.626924 0 -0.779081
  outer loop
   vertex 0.253336 1.495 0.110282
   vertex 0.195783 0 0.156595
   vertex 0.195783 1.495 0.156595
  endloop
 endfacet
 facet normal -0.717912 -0 -0.696134
  outer loop
   vertex 0.195783 1.495 0.156595
   vertex 0.195783 0 0.156595
   vertex 0.144357 0 0.209629
  endloop
 endfacet
 facet normal -0.717912 0 -0.696134
  outer loop
   vertex 0.195783 1.495 0.156595
   vertex 0.144357 0 0.209629
   vertex 0.144357 1.495 0.209629
  endloop
 endfacet
 facet normal -0.798017 -0 -0.602635
  outer loop
   vertex 0.144357 1.495 0.209629
   vertex 0.144357 0 0.209629
   vertex 0.0998386 0 0.268581
  endloop
 endfacet
 facet normal -0.798017 0 -0.602635
  outer loop
   vertex 0.144357 1.495 0.209629
   vertex 0.0998386 0 0.268581
   vertex 0.0998386 1.495 0.268581
  endloop
 endfacet
 facet normal -0.866025 -0 -0.5
  outer loop
   vertex 0.0998386 1.495 0.268581
   vertex 0.0998386 0 0.268581
   vertex 0.062902 0 0.332557
  endloop
 endfacet
 facet normal -0.866025 0 -0.5
  outer loop
   vertex 0.0998386 1.495 0.268581
   vertex 0.062902 0 0.332557
   vertex 0.062902 1.495 0.332557
  endloop
 endfacet
 facet normal -0.920906 -0 -0.389786
  outer loop
   vertex 0.062902 1.495 0.332557
   vertex 0.062902 0 0.332557
   vertex 0.0341074 0 0.400587
  endloop
 endfacet
 facet normal -0.920906 0 -0.389786
  outer loop
   vertex 0.062902 1.495 0.332557
   vertex 0.0341074 0 0.400587
   vertex 0.0341074 1.495 0.400587
  endloop
 endfacet
 facet normal -0.961826 -0 -0.273663
  outer loop
   vertex 0.0341074 1.495 0.400587
   vertex 0.0341074 0 0.400587
   vertex 0.013891 0 0.47164
  endloop
 endfacet
 facet normal -0.961826 0 -0.273663
  outer loop
   vertex 0.0341074 1.495 0.400587
   vertex 0.013891 0 0.47164
   vertex 0.013891 1.495 0.47164
  endloop
 endfacet
 facet normal -0.988166 -0 -0.153391
  outer loop
   vertex 0.013891 1.495 0.47164
   vertex 0.013891 0 0.47164
   vertex 0.00255954 0 0.544639
  endloop
 endfacet
 facet normal -0.988166 0 -0.153391
  outer loop
   vertex 0.013891 1.495 0.47164
   vertex 0.00255954 0 0.544639
   vertex 0.00255954 1.495 0.544639
  endloop
 endfacet
 facet normal -0.998933 -0 -0.0461844
  outer loop
   vertex 0.00255954 1.495 0.544639
   vertex 0.00255954 0 0.544639
   vertex 0 1.095 0.6
  endloop
 endfacet
 facet normal -0.998933 0 -0.0461844
  outer loop
   vertex 0.00255954 1.495 0.544639
   vertex 0 1.095 0.6
   vertex 0 1.495 0.6
  endloop
 endfacet
 facet normal 1 0 0
  outer loop
   vertex 0.09 1.495 1.4
   vertex 0.09 1.095 1.4
   vertex 0.09 1.495 0.91607
  endloop
 endfacet
 facet normal 1 0 0
  outer loop
   vertex 0.09 1.495 0.91607
   vertex 0.09 1.095 1.4
   vertex 0.09 1.095 0.91607
  endloop
 endfacet
 facet normal 0 1 0
  outer loop
   vertex 0 1.495 0.6
   vertex 0 1.495 1.4
   vertex 0.09 1.495 0.91607
  endloop
 endfacet
 facet normal 0 1 -0
  outer loop
   vertex 0.09 1.495 0.91607
   vertex 0 1.495 1.4
   vertex 0.09 1.495 1.4
  endloop
 endfacet
 facet normal 0 1 0
  outer loop
   vertex 0.559055 1.495 0.838793
   vertex 0.519288 1.495 0.828438
   vertex 0.418108 1.495 1.17177
  endloop
 endfacet
 facet normal 0 1 0
  outer loop
   vertex 0.418108 1.495 1.17177
   vertex 0.519288 1.495 0.828438
   vertex 0.349224 1.495 1.14508
  endloop
 endfacet
 facet normal 0 1 0
  outer loop
   vertex 0.349224 1.495 1.14508
   vertex 0.519288 1.495 0.828438
   vertex 0.481842 1.495 0.811512
  endloop
 endfacet
 facet normal 0 1 0
  outer loop
   vertex 0.349224 1.495 1.14508
   vertex 0.481842 1.495 0.811512
   vertex 0.284141 1.495 1.11013
  endloop
 endfacet
 facet normal -0 1 0
  outer loop
   vertex 0 1.495 0.6
   vertex 0.35794 1.495 0.610283
   vertex 0.00255954 1.495 0.544639
  endloop
 endfacet
 facet normal 0 1 0
  outer loop
   vertex 0.00255954 1.495 0.544639
   vertex 0.35794 1.495 0.610283
   vertex 0.359684 1.495 0.569226
  endloop
 endfacet
 facet normal -0 1 0
  outer loop
   vertex 0.00255954 1.495 0.544639
   vertex 0.359684 1.495 0.569226
   vertex 0.013891 1.495 0.47164
  endloop
 endfacet
 facet normal 0 1 0
  outer loop
   vertex 0.013891 1.495 0.47164
   vertex 0.359684 1.495 0.569226
   vertex 0.368342 1.495 0.529056
  endloop
 endfacet
 facet normal -0 1 0
  outer loop
   vertex 0.418108 1.495 1.17177
   vertex 0.48975 1.495 1.18978
   vertex 0.559055 1.495 0.838793
  endloop
 endfacet
 facet normal 0 1 -0
  outer loop
   vertex 0.559055 1.495 0.838793
   vertex 0.48975 1.495 1.18978
   vertex 0.563063 1.495 1.19886
  endloop
 endfacet
 facet normal 0 1 0
  outer loop
   vertex 0.559055 1.495 0.838793
   vertex 0.563063 1.495 1.19886
   vertex 0.6 1.495 0.842278
  endloop
 endfacet
 facet normal 0 1 -0
  outer loop
   vertex 0.6 1.495 0.842278
   vertex 0.563063 1.495 1.19886
   vertex 0.636937 1.495 1.19886
  endloop
 endfacet
 facet normal -0 1 0
  outer loop
   vertex 0.6 1.495 0.842278
   vertex 0.636937 1.495 1.19886
   vertex 0.640945 1.495 0.838793
  endloop
 endfacet
 facet normal 0 1 -0
  outer loop
   vertex 0.640945 1.495 0.838793
   vertex 0.636937 1.495 1.19886
   vertex 0.71025 1.495 1.18978
  endloop
 endfacet
 facet normal -0 1 0
  outer loop
   vertex 0.640945 1.495 0.838793
   vertex 0.71025 1.495 1.18978
   vertex 0.680712 1.495 0.828438
  endloop
 endfacet
 facet normal 0 1 0
  outer loop
   vertex 0.284141 1.495 1.11013
   vertex 0.481842 1.495 0.811512
   vertex 0.223846 1.495 1.06745
  endloop
 endfacet
 facet normal 0 1 0
  outer loop
   vertex 0.223846 1.495 1.06745
   vertex 0.481842 1.495 0.811512
   vertex 0.447796 1.495 0.788501
  endloop
 endfacet
 facet normal 0 1 0
  outer loop
   vertex 0.223846 1.495 1.06745
   vertex 0.447796 1.495 0.788501
   vertex 0.169253 1.495 1.01768
  endloop
 endfacet
 facet normal 0 1 0
  outer loop
   vertex 0.169253 1.495 1.01768
   vertex 0.447796 1.495 0.788501
   vertex 0.418129 1.495 0.760067
  endloop
 endfacet
 facet normal 0 1 0
  outer loop
   vertex 0.169253 1.495 1.01768
   vertex 0.418129 1.495 0.760067
   vertex 0.12119 1.495 0.961581
  endloop
 endfacet
 facet normal 0 1 0
  outer loop
   vertex 0.12119 1.495 0.961581
   vertex 0.418129 1.495 0.760067
   vertex 0.393693 1.495 0.727028
  endloop
 endfacet
 facet normal 0 1 0
  outer loop
   vertex 0.12119 1.495 0.961581
   vertex 0.393693 1.495 0.727028
   vertex 0.09 1.495 0.91607
  endloop
 endfacet
 facet normal 0 1 0
  outer loop
   vertex 0.09 1.495 0.91607
   vertex 0.393693 1.495 0.727028
   vertex 0.375193 1.495 0.690335
  endloop
 endfacet
 facet normal 0 1 0
  outer loop
   vertex 0.09 1.495 0.91607
   vertex 0.375193 1.495 0.690335
   vertex 0 1.495 0.6
  endloop
 endfacet
 facet normal 0 1 0
  outer loop
   vertex 0 1.495 0.6
   vertex 0.375193 1.495 0.690335
   vertex 0.36316 1.495 0.651043
  endloop
 endfacet
 facet normal 0 1 0
  outer loop
   vertex 0 1.495 0.6
   vertex 0.36316 1.495 0.651043
   vertex 0.35794 1.495 0.610283
  endloop
 endfacet
 facet normal 0 1 0
  outer loop
   vertex 0.432358 1.495 0.425086
   vertex 0.144357 1.495 0.209629
   vertex 0.405209 1.495 0.455934
  endloop
 endfacet
 facet normal 0 1 0
  outer loop
   vertex 0.405209 1.495 0.455934
   vertex 0.144357 1.495 0.209629
   vertex 0.0998386 1.495 0.268581
  endloop
 endfacet
 facet normal 0 1 0
  outer loop
   vertex 0.405209 1.495 0.455934
   vertex 0.0998386 1.495 0.268581
   vertex 0.383664 1.495 0.490926
  endloop
 endfacet
 facet normal 0 1 0
  outer loop
   vertex 0.383664 1.495 0.490926
   vertex 0.0998386 1.495 0.268581
   vertex 0.062902 1.495 0.332557
  endloop
 endfacet
 facet normal 0 1 0
  outer loop
   vertex 0.383664 1.495 0.490926
   vertex 0.062902 1.495 0.332557
   vertex 0.368342 1.495 0.529056
  endloop
 endfacet
 facet normal 0 1 0
  outer loop
   vertex 0.368342 1.495 0.529056
   vertex 0.062902 1.495 0.332557
   vertex 0.0341074 1.495 0.400587
  endloop
 endfacet
 facet normal 0 1 0
  outer loop
   vertex 0.368342 1.495 0.529056
   vertex 0.0341074 1.495 0.400587
   vertex 0.013891 1.495 0.47164
  endloop
 endfacet
 facet normal 0 1 0
  outer loop
   vertex 0.500205 1.495 0.379229
   vertex 0.316144 1.495 0.0713927
   vertex 0.46433 1.495 0.39927
  endloop
 endfacet
 facet normal 0 1 0
  outer loop
   vertex 0.46433 1.495 0.39927
   vertex 0.316144 1.495 0.0713927
   vertex 0.253336 1.495 0.110282
  endloop
 endfacet
 facet normal 0 1 0
  outer loop
   vertex 0.46433 1.495 0.39927
   vertex 0.253336 1.495 0.110282
   vertex 0.432358 1.495 0.425086
  endloop
 endfacet
 facet normal 0 1 0
  outer loop
   vertex 0.432358 1.495 0.425086
   vertex 0.253336 1.495 0.110282
   vertex 0.195783 1.495 0.156595
  endloop
 endfacet
 facet normal 0 1 0
  outer loop
   vertex 0.432358 1.495 0.425086
   vertex 0.195783 1.495 0.156595
   vertex 0.144357 1.495 0.209629
  endloop
 endfacet
 facet normal -0 1 0
  outer loop
   vertex 0.824807 1.495 0.690335
   vertex 1.1771 1.495 0.764198
   vertex 0.83684 1.495 0.651043
  endloop
 endfacet
 facet normal 0 1 0
  outer loop
   vertex 0.83684 1.495 0.651043
   vertex 1.1771 1.495 0.764198
   vertex 1.1929 1.495 0.692035
  endloop
 endfacet
 facet normal -0 1 0
  outer loop
   vertex 0.83684 1.495 0.651043
   vertex 1.1929 1.495 0.692035
   vertex 0.84206 1.495 0.610283
  endloop
 endfacet
 facet normal 0 1 0
  outer loop
   vertex 0.84206 1.495 0.610283
   vertex 1.1929 1.495 0.692035
   vertex 1.19972 1.495 0.618477
  endloop
 endfacet
 facet normal -0 1 0
  outer loop
   vertex 0.84206 1.495 0.610283
   vertex 1.19972 1.495 0.618477
   vertex 0.840316 1.495 0.569226
  endloop
 endfacet
 facet normal -0 1 0
  outer loop
   vertex 0.781871 1.495 0.760067
   vertex 1.07881 1.495 0.961581
   vertex 0.806307 1.495 0.727028
  endloop
 endfacet
 facet normal 0 1 0
  outer loop
   vertex 0.806307 1.495 0.727028
   vertex 1.07881 1.495 0.961581
   vertex 1.11962 1.495 0.9
  endloop
 endfacet
 facet normal -0 1 0
  outer loop
   vertex 0.806307 1.495 0.727028
   vertex 1.11962 1.495 0.9
   vertex 0.824807 1.495 0.690335
  endloop
 endfacet
 facet normal 0 1 0
  outer loop
   vertex 0.824807 1.495 0.690335
   vertex 1.11962 1.495 0.9
   vertex 1.15254 1.495 0.833872
  endloop
 endfacet
 facet normal 0 1 0
  outer loop
   vertex 0.824807 1.495 0.690335
   vertex 1.15254 1.495 0.833872
   vertex 1.1771 1.495 0.764198
  endloop
 endfacet
 facet normal 0 1 0
  outer loop
   vertex 0.71025 1.495 1.18978
   vertex 0.781892 1.495 1.17177
   vertex 0.680712 1.495 0.828438
  endloop
 endfacet
 facet normal 0 1 0
  outer loop
   vertex 0.680712 1.495 0.828438
   vertex 0.781892 1.495 1.17177
   vertex 0.850776 1.495 1.14508
  endloop
 endfacet
 facet normal -0 1 0
  outer loop
   vertex 0.680712 1.495 0.828438
   vertex 0.850776 1.495 1.14508
   vertex 0.718158 1.495 0.811512
  endloop
 endfacet
 facet normal 0 1 0
  outer loop
   vertex 0.718158 1.495 0.811512
   vertex 0.850776 1.495 1.14508
   vertex 0.915859 1.495 1.11013
  endloop
 endfacet
 facet normal -0 1 0
  outer loop
   vertex 0.718158 1.495 0.811512
   vertex 0.915859 1.495 1.11013
   vertex 0.752204 1.495 0.788501
  endloop
 endfacet
 facet normal 0 1 0
  outer loop
   vertex 0.752204 1.495 0.788501
   vertex 0.915859 1.495 1.11013
   vertex 0.976154 1.495 1.06745
  endloop
 endfacet
 facet normal -0 1 0
  outer loop
   vertex 0.752204 1.495 0.788501
   vertex 0.976154 1.495 1.06745
   vertex 0.781871 1.495 0.760067
  endloop
 endfacet
 facet normal 0 1 0
  outer loop
   vertex 0.781871 1.495 0.760067
   vertex 0.976154 1.495 1.06745
   vertex 1.03075 1.495 1.01768
  endloop
 endfacet
 facet normal 0 1 0
  outer loop
   vertex 0.781871 1.495 0.760067
   vertex 1.03075 1.495 1.01768
   vertex 1.07881 1.495 0.961581
  endloop
 endfacet
 facet normal 0 1 0
  outer loop
   vertex 0.794791 1.495 0.455934
   vertex 1.05564 1.495 0.209629
   vertex 0.767642 1.495 0.425086
  endloop
 endfacet
 facet normal 0 1 0
  outer loop
   vertex 0.767642 1.495 0.425086
   vertex 1.05564 1.495 0.209629
   vertex 1.00422 1.495 0.156595
  endloop
 endfacet
 facet normal 0 1 0
  outer loop
   vertex 0.767642 1.495 0.425086
   vertex 1.00422 1.495 0.156595
   vertex 0.73567 1.495 0.39927
  endloop
 endfacet
 facet normal 0 1 0
  outer loop
   vertex 1.00422 1.495 0.156595
   vertex 0.946664 1.495 0.110282
   vertex 0.73567 1.495 0.39927
  endloop
 endfacet
 facet normal 0 1 0
  outer loop
   vertex 0.73567 1.495 0.39927
   vertex 0.946664 1.495 0.110282
   vertex 0.883856 1.495 0.0713927
  endloop
 endfacet
 facet normal 0 1 0
  outer loop
   vertex 0.73567 1.495 0.39927
   vertex 0.883856 1.495 0.0713927
   vertex 0.699795 1.495 0.379229
  endloop
 endfacet
 facet normal 0 1 0
  outer loop
   vertex 0.699795 1.495 0.379229
   vertex 0.883856 1.495 0.0713927
   vertex 0.816745 1.495 0.0405167
  endloop
 endfacet
 facet normal 0 1 0
  outer loop
   vertex 0.699795 1.495 0.379229
   vertex 0.816745 1.495 0.0405167
   vertex 0.661049 1.495 0.36554
  endloop
 endfacet
 facet normal 0 1 0
  outer loop
   vertex 0.661049 1.495 0.36554
   vertex 0.816745 1.495 0.0405167
   vertex 0.746348 1.495 0.0181218
  endloop
 endfacet
 facet normal 0 1 0
  outer loop
   vertex 0.661049 1.495 0.36554
   vertex 0.746348 1.495 0.0181218
   vertex 0.620547 1.495 0.358595
  endloop
 endfacet
 facet normal 0 1 0
  outer loop
   vertex 0.620547 1.495 0.358595
   vertex 0.746348 1.495 0.0181218
   vertex 0.673733 1.495 0.00454772
  endloop
 endfacet
 facet normal 0 1 0
  outer loop
   vertex 0.620547 1.495 0.358595
   vertex 0.673733 1.495 0.00454772
   vertex 0.6 1.495 0.357722
  endloop
 endfacet
 facet normal 0 1 0
  outer loop
   vertex 0.6 1.495 0.357722
   vertex 0.673733 1.495 0.00454772
   vertex 0.6 1.495 0
  endloop
 endfacet
 facet normal 0 1 0
  outer loop
   vertex 0.6 1.495 0.357722
   vertex 0.6 1.495 0
   vertex 0.579453 1.495 0.358595
  endloop
 endfacet
 facet normal 0 1 0
  outer loop
   vertex 0.579453 1.495 0.358595
   vertex 0.6 1.495 0
   vertex 0.526267 1.495 0.00454772
  endloop
 endfacet
 facet normal 0 1 0
  outer loop
   vertex 0.579453 1.495 0.358595
   vertex 0.526267 1.495 0.00454772
   vertex 0.538951 1.495 0.36554
  endloop
 endfacet
 facet normal 0 1 0
  outer loop
   vertex 0.538951 1.495 0.36554
   vertex 0.526267 1.495 0.00454772
   vertex 0.453652 1.495 0.0181218
  endloop
 endfacet
 facet normal 0 1 0
  outer loop
   vertex 0.538951 1.495 0.36554
   vertex 0.453652 1.495 0.0181218
   vertex 0.500205 1.495 0.379229
  endloop
 endfacet
 facet normal 0 1 0
  outer loop
   vertex 0.500205 1.495 0.379229
   vertex 0.453652 1.495 0.0181218
   vertex 0.383255 1.495 0.0405167
  endloop
 endfacet
 facet normal 0 1 0
  outer loop
   vertex 0.500205 1.495 0.379229
   vertex 0.383255 1.495 0.0405167
   vertex 0.316144 1.495 0.0713927
  endloop
 endfacet
 facet normal 0 1 0
  outer loop
   vertex 1.19972 1.495 0.618477
   vertex 1.19744 1.495 0.544639
   vertex 0.840316 1.495 0.569226
  endloop
 endfacet
 facet normal 0 1 0
  outer loop
   vertex 0.840316 1.495 0.569226
   vertex 1.19744 1.495 0.544639
   vertex 1.18611 1.495 0.47164
  endloop
 endfacet
 facet normal 0 1 0
  outer loop
   vertex 0.840316 1.495 0.569226
   vertex 1.18611 1.495 0.47164
   vertex 0.831658 1.495 0.529056
  endloop
 endfacet
 facet normal 0 1 0
  outer loop
   vertex 0.831658 1.495 0.529056
   vertex 1.18611 1.495 0.47164
   vertex 1.16589 1.495 0.400587
  endloop
 endfacet
 facet normal 0 1 0
  outer loop
   vertex 0.831658 1.495 0.529056
   vertex 1.16589 1.495 0.400587
   vertex 0.816336 1.495 0.490926
  endloop
 endfacet
 facet normal 0 1 0
  outer loop
   vertex 0.816336 1.495 0.490926
   vertex 1.16589 1.495 0.400587
   vertex 1.1371 1.495 0.332557
  endloop
 endfacet
 facet normal 0 1 0
  outer loop
   vertex 0.816336 1.495 0.490926
   vertex 1.1371 1.495 0.332557
   vertex 0.794791 1.495 0.455934
  endloop
 endfacet
 facet normal 0 1 0
  outer loop
   vertex 0.794791 1.495 0.455934
   vertex 1.1371 1.495 0.332557
   vertex 1.10016 1.495 0.268581
  endloop
 endfacet
 facet normal 0 1 0
  outer loop
   vertex 0.794791 1.495 0.455934
   vertex 1.10016 1.495 0.268581
   vertex 1.05564 1.495 0.209629
  endloop
 endfacet
 facet normal -0 -1 0
  outer loop
   vertex 0.09 1.095 0.91607
   vertex 0.09 1.095 1.4
   vertex 0.0803848 1.095 0.9
  endloop
 endfacet
 facet normal 0 -1 0
  outer loop
   vertex 0.0803848 1.095 0.9
   vertex 0.09 1.095 1.4
   vertex 0 1.095 1.4
  endloop
 endfacet
 facet normal -0 -1 0
  outer loop
   vertex 0.0803848 1.095 0.9
   vertex 0 1.095 1.4
   vertex 0.0474567 1.095 0.833872
  endloop
 endfacet
 facet normal -0 -1 0
  outer loop
   vertex 0.0474567 1.095 0.833872
   vertex 0 1.095 1.4
   vertex 0.0229046 1.095 0.764198
  endloop
 endfacet
 facet normal 0 -1 0
  outer loop
   vertex 0 1.095 0.6
   vertex 0.000284612 1.095 0.618477
   vertex 0 1.095 1.4
  endloop
 endfacet
 facet normal 0 -1 0
  outer loop
   vertex 0 1.095 1.4
   vertex 0.000284612 1.095 0.618477
   vertex 0.00710076 1.095 0.692035
  endloop
 endfacet
 facet normal 0 -1 0
  outer loop
   vertex 0 1.095 1.4
   vertex 0.00710076 1.095 0.692035
   vertex 0.0229046 1.095 0.764198
  endloop
 endfacet
 facet normal -0 1 0
  outer loop
   vertex 0.660962 0.3 0.709127
   vertex 0.673154 0.3 0.730952
   vertex 0.678528 0.3 0.697255
  endloop
 endfacet
 facet normal 0 1 -0
  outer loop
   vertex 0.678528 0.3 0.697255
   vertex 0.673154 0.3 0.730952
   vertex 0.694233 0.3 0.716705
  endloop
 endfacet
 facet normal -0 1 0
  outer loop
   vertex 0.678528 0.3 0.697255
   vertex 0.694233 0.3 0.716705
   vertex 0.693834 0.3 0.682584
  endloop
 endfacet
 facet normal 0 1 0
  outer loop
   vertex 0.693834 0.3 0.682584
   vertex 0.694233 0.3 0.716705
   vertex 0.712601 0.3 0.699101
  endloop
 endfacet
 facet normal -0 1 0
  outer loop
   vertex 0.693834 0.3 0.682584
   vertex 0.712601 0.3 0.699101
   vertex 0.706441 0.3 0.665538
  endloop
 endfacet
 facet normal 0 1 0
  outer loop
   vertex 0.706441 0.3 0.665538
   vertex 0.712601 0.3 0.699101
   vertex 0.727729 0.3 0.678646
  endloop
 endfacet
 facet normal -0 1 0
  outer loop
   vertex 0.706441 0.3 0.665538
   vertex 0.727729 0.3 0.678646
   vertex 0.715986 0.3 0.646607
  endloop
 endfacet
 facet normal 0 1 0
  outer loop
   vertex 0.715986 0.3 0.646607
   vertex 0.727729 0.3 0.678646
   vertex 0.739183 0.3 0.655928
  endloop
 endfacet
 facet normal -0 1 0
  outer loop
   vertex 0.715986 0.3 0.646607
   vertex 0.739183 0.3 0.655928
   vertex 0.722194 0.3 0.626335
  endloop
 endfacet
 facet normal 0 1 0
  outer loop
   vertex 0.722194 0.3 0.626335
   vertex 0.739183 0.3 0.655928
   vertex 0.746633 0.3 0.631602
  endloop
 endfacet
 facet normal -0 1 0
  outer loop
   vertex 0.722194 0.3 0.626335
   vertex 0.746633 0.3 0.631602
   vertex 0.724887 0.3 0.605305
  endloop
 endfacet
 facet normal 0 1 0
  outer loop
   vertex 0.724887 0.3 0.605305
   vertex 0.746633 0.3 0.631602
   vertex 0.749865 0.3 0.606366
  endloop
 endfacet
 facet normal -0 1 0
  outer loop
   vertex 0.724887 0.3 0.605305
   vertex 0.749865 0.3 0.606366
   vertex 0.723988 0.3 0.584123
  endloop
 endfacet
 facet normal -0 1 0
  outer loop
   vertex 0.723988 0.3 0.584123
   vertex 0.749865 0.3 0.606366
   vertex 0.748785 0.3 0.580947
  endloop
 endfacet
 facet normal 0 1 0
  outer loop
   vertex 0.723988 0.3 0.584123
   vertex 0.748785 0.3 0.580947
   vertex 0.719521 0.3 0.563397
  endloop
 endfacet
 facet normal -0 1 0
  outer loop
   vertex 0.719521 0.3 0.563397
   vertex 0.748785 0.3 0.580947
   vertex 0.743425 0.3 0.556077
  endloop
 endfacet
 facet normal 0 1 0
  outer loop
   vertex 0.719521 0.3 0.563397
   vertex 0.743425 0.3 0.556077
   vertex 0.711616 0.3 0.543725
  endloop
 endfacet
 facet normal -0 1 0
  outer loop
   vertex 0.711616 0.3 0.543725
   vertex 0.743425 0.3 0.556077
   vertex 0.733939 0.3 0.532469
  endloop
 endfacet
 facet normal 0 1 0
  outer loop
   vertex 0.711616 0.3 0.543725
   vertex 0.733939 0.3 0.532469
   vertex 0.7005 0.3 0.525671
  endloop
 endfacet
 facet normal -0 1 0
  outer loop
   vertex 0.7005 0.3 0.525671
   vertex 0.733939 0.3 0.532469
   vertex 0.7206 0.3 0.510805
  endloop
 endfacet
 facet normal 0 1 0
  outer loop
   vertex 0.7005 0.3 0.525671
   vertex 0.7206 0.3 0.510805
   vertex 0.686492 0.3 0.509756
  endloop
 endfacet
 facet normal -0 1 0
  outer loop
   vertex 0.686492 0.3 0.509756
   vertex 0.7206 0.3 0.510805
   vertex 0.703791 0.3 0.491707
  endloop
 endfacet
 facet normal 0 1 0
  outer loop
   vertex 0.686492 0.3 0.509756
   vertex 0.703791 0.3 0.491707
   vertex 0.669997 0.3 0.496436
  endloop
 endfacet
 facet normal 0 1 0
  outer loop
   vertex 0.669997 0.3 0.496436
   vertex 0.703791 0.3 0.491707
   vertex 0.683996 0.3 0.475724
  endloop
 endfacet
 facet normal 0 1 0
  outer loop
   vertex 0.669997 0.3 0.496436
   vertex 0.683996 0.3 0.475724
   vertex 0.651488 0.3 0.486096
  endloop
 endfacet
 facet normal 0 1 0
  outer loop
   vertex 0.651488 0.3 0.486096
   vertex 0.683996 0.3 0.475724
   vertex 0.661785 0.3 0.463316
  endloop
 endfacet
 facet normal 0 1 0
  outer loop
   vertex 0.651488 0.3 0.486096
   vertex 0.661785 0.3 0.463316
   vertex 0.631497 0.3 0.479033
  endloop
 endfacet
 facet normal 0 1 0
  outer loop
   vertex 0.631497 0.3 0.479033
   vertex 0.661785 0.3 0.463316
   vertex 0.637797 0.3 0.45484
  endloop
 endfacet
 facet normal 0 1 0
  outer loop
   vertex 0.631497 0.3 0.479033
   vertex 0.637797 0.3 0.45484
   vertex 0.610601 0.3 0.47545
  endloop
 endfacet
 facet normal 0 1 0
  outer loop
   vertex 0.610601 0.3 0.47545
   vertex 0.637797 0.3 0.45484
   vertex 0.612721 0.3 0.45054
  endloop
 endfacet
 facet normal 0 1 0
  outer loop
   vertex 0.610601 0.3 0.47545
   vertex 0.612721 0.3 0.45054
   vertex 0.589399 0.3 0.47545
  endloop
 endfacet
 facet normal 0 1 0
  outer loop
   vertex 0.589399 0.3 0.47545
   vertex 0.612721 0.3 0.45054
   vertex 0.587279 0.3 0.45054
  endloop
 endfacet
 facet normal 0 1 0
  outer loop
   vertex 0.589399 0.3 0.47545
   vertex 0.587279 0.3 0.45054
   vertex 0.568503 0.3 0.479033
  endloop
 endfacet
 facet normal 0 1 0
  outer loop
   vertex 0.568503 0.3 0.479033
   vertex 0.587279 0.3 0.45054
   vertex 0.562203 0.3 0.45484
  endloop
 endfacet
 facet normal 0 1 0
  outer loop
   vertex 0.568503 0.3 0.479033
   vertex 0.562203 0.3 0.45484
   vertex 0.548512 0.3 0.486096
  endloop
 endfacet
 facet normal 0 1 0
  outer loop
   vertex 0.548512 0.3 0.486096
   vertex 0.562203 0.3 0.45484
   vertex 0.538215 0.3 0.463316
  endloop
 endfacet
 facet normal 0 1 0
  outer loop
   vertex 0.548512 0.3 0.486096
   vertex 0.538215 0.3 0.463316
   vertex 0.530003 0.3 0.496436
  endloop
 endfacet
 facet normal 0 1 0
  outer loop
   vertex 0.530003 0.3 0.496436
   vertex 0.538215 0.3 0.463316
   vertex 0.516004 0.3 0.475724
  endloop
 endfacet
 facet normal 0 1 0
  outer loop
   vertex 0.530003 0.3 0.496436
   vertex 0.516004 0.3 0.475724
   vertex 0.513508 0.3 0.509756
  endloop
 endfacet
 facet normal 0 1 0
  outer loop
   vertex 0.513508 0.3 0.509756
   vertex 0.516004 0.3 0.475724
   vertex 0.496209 0.3 0.491707
  endloop
 endfacet
 facet normal 0 1 0
  outer loop
   vertex 0.513508 0.3 0.509756
   vertex 0.496209 0.3 0.491707
   vertex 0.4995 0.3 0.525671
  endloop
 endfacet
 facet normal 0 1 0
  outer loop
   vertex 0.4995 0.3 0.525671
   vertex 0.496209 0.3 0.491707
   vertex 0.4794 0.3 0.510805
  endloop
 endfacet
 facet normal 0 1 0
  outer loop
   vertex 0.4995 0.3 0.525671
   vertex 0.4794 0.3 0.510805
   vertex 0.488384 0.3 0.543725
  endloop
 endfacet
 facet normal 0 1 0
  outer loop
   vertex 0.488384 0.3 0.543725
   vertex 0.4794 0.3 0.510805
   vertex 0.466061 0.3 0.532469
  endloop
 endfacet
 facet normal 0 1 0
  outer loop
   vertex 0.488384 0.3 0.543725
   vertex 0.466061 0.3 0.532469
   vertex 0.480479 0.3 0.563397
  endloop
 endfacet
 facet normal 0 1 0
  outer loop
   vertex 0.480479 0.3 0.563397
   vertex 0.466061 0.3 0.532469
   vertex 0.456575 0.3 0.556077
  endloop
 endfacet
 facet normal 0 1 0
  outer loop
   vertex 0.480479 0.3 0.563397
   vertex 0.456575 0.3 0.556077
   vertex 0.476012 0.3 0.584123
  endloop
 endfacet
 facet normal 0 1 0
  outer loop
   vertex 0.476012 0.3 0.584123
   vertex 0.456575 0.3 0.556077
   vertex 0.451215 0.3 0.580947
  endloop
 endfacet
 facet normal 0 1 0
  outer loop
   vertex 0.476012 0.3 0.584123
   vertex 0.451215 0.3 0.580947
   vertex 0.475113 0.3 0.605305
  endloop
 endfacet
 facet normal 0 1 0
  outer loop
   vertex 0.475113 0.3 0.605305
   vertex 0.451215 0.3 0.580947
   vertex 0.450135 0.3 0.606366
  endloop
 endfacet
 facet normal 0 1 -0
  outer loop
   vertex 0.475113 0.3 0.605305
   vertex 0.450135 0.3 0.606366
   vertex 0.477806 0.3 0.626335
  endloop
 endfacet
 facet normal 0 1 0
  outer loop
   vertex 0.477806 0.3 0.626335
   vertex 0.450135 0.3 0.606366
   vertex 0.453367 0.3 0.631602
  endloop
 endfacet
 facet normal 0 1 -0
  outer loop
   vertex 0.477806 0.3 0.626335
   vertex 0.453367 0.3 0.631602
   vertex 0.484014 0.3 0.646607
  endloop
 endfacet
 facet normal 0 1 0
  outer loop
   vertex 0.484014 0.3 0.646607
   vertex 0.453367 0.3 0.631602
   vertex 0.460817 0.3 0.655928
  endloop
 endfacet
 facet normal 0 1 -0
  outer loop
   vertex 0.484014 0.3 0.646607
   vertex 0.460817 0.3 0.655928
   vertex 0.493559 0.3 0.665538
  endloop
 endfacet
 facet normal 0 1 0
  outer loop
   vertex 0.493559 0.3 0.665538
   vertex 0.460817 0.3 0.655928
   vertex 0.472271 0.3 0.678646
  endloop
 endfacet
 facet normal 0 1 -0
  outer loop
   vertex 0.493559 0.3 0.665538
   vertex 0.472271 0.3 0.678646
   vertex 0.506166 0.3 0.682584
  endloop
 endfacet
 facet normal 0 1 0
  outer loop
   vertex 0.506166 0.3 0.682584
   vertex 0.472271 0.3 0.678646
   vertex 0.487399 0.3 0.699101
  endloop
 endfacet
 facet normal 0 1 -0
  outer loop
   vertex 0.506166 0.3 0.682584
   vertex 0.487399 0.3 0.699101
   vertex 0.521473 0.3 0.697255
  endloop
 endfacet
 facet normal 0 1 0
  outer loop
   vertex 0.521473 0.3 0.697255
   vertex 0.487399 0.3 0.699101
   vertex 0.505767 0.3 0.716705
  endloop
 endfacet
 facet normal 0 1 -0
  outer loop
   vertex 0.521473 0.3 0.697255
   vertex 0.505767 0.3 0.716705
   vertex 0.539038 0.3 0.709127
  endloop
 endfacet
 facet normal 0 1 0
  outer loop
   vertex 0.539038 0.3 0.709127
   vertex 0.505767 0.3 0.716705
   vertex 0.526846 0.3 0.730952
  endloop
 endfacet
 facet normal 0 1 -0
  outer loop
   vertex 0.539038 0.3 0.709127
   vertex 0.526846 0.3 0.730952
   vertex 0.558358 0.3 0.71786
  endloop
 endfacet
 facet normal 0 1 0
  outer loop
   vertex 0.558358 0.3 0.71786
   vertex 0.526846 0.3 0.730952
   vertex 0.550029 0.3 0.741432
  endloop
 endfacet
 facet normal 0 1 -0
  outer loop
   vertex 0.558358 0.3 0.71786
   vertex 0.550029 0.3 0.741432
   vertex 0.578875 0.3 0.723202
  endloop
 endfacet
 facet normal 0 1 0
  outer loop
   vertex 0.578875 0.3 0.723202
   vertex 0.550029 0.3 0.741432
   vertex 0.57465 0.3 0.747842
  endloop
 endfacet
 facet normal 0 1 -0
  outer loop
   vertex 0.578875 0.3 0.723202
   vertex 0.57465 0.3 0.747842
   vertex 0.6 0.3 0.725
  endloop
 endfacet
 facet normal 0 1 -0
  outer loop
   vertex 0.6 0.3 0.725
   vertex 0.57465 0.3 0.747842
   vertex 0.6 0.3 0.75
  endloop
 endfacet
 facet normal -0 1 0
  outer loop
   vertex 0.6 0.3 0.725
   vertex 0.6 0.3 0.75
   vertex 0.621125 0.3 0.723202
  endloop
 endfacet
 facet normal 0 1 -0
  outer loop
   vertex 0.621125 0.3 0.723202
   vertex 0.6 0.3 0.75
   vertex 0.62535 0.3 0.747842
  endloop
 endfacet
 facet normal -0 1 0
  outer loop
   vertex 0.621125 0.3 0.723202
   vertex 0.62535 0.3 0.747842
   vertex 0.641643 0.3 0.71786
  endloop
 endfacet
 facet normal 0 1 -0
  outer loop
   vertex 0.641643 0.3 0.71786
   vertex 0.62535 0.3 0.747842
   vertex 0.649971 0.3 0.741432
  endloop
 endfacet
 facet normal -0 1 0
  outer loop
   vertex 0.641643 0.3 0.71786
   vertex 0.649971 0.3 0.741432
   vertex 0.660962 0.3 0.709127
  endloop
 endfacet
 facet normal 0 1 -0
  outer loop
   vertex 0.660962 0.3 0.709127
   vertex 0.649971 0.3 0.741432
   vertex 0.673154 0.3 0.730952
  endloop
 endfacet
 facet normal -0.168502 0.0767152 0.982711
  outer loop
   vertex 0.661049 1.495 0.36554
   vertex 0.620547 1.495 0.358595
   vertex 0.612721 0.3 0.45054
  endloop
 endfacet
 facet normal -0.0423166 0.0769219 0.996139
  outer loop
   vertex 0.612721 0.3 0.45054
   vertex 0.620547 1.495 0.358595
   vertex 0.6 1.495 0.357722
  endloop
 endfacet
 facet normal 0 0.077439 0.996997
  outer loop
   vertex 0.612721 0.3 0.45054
   vertex 0.6 1.495 0.357722
   vertex 0.587279 0.3 0.45054
  endloop
 endfacet
 facet normal 0.0423167 0.0769219 0.996139
  outer loop
   vertex 0.587279 0.3 0.45054
   vertex 0.6 1.495 0.357722
   vertex 0.579453 1.495 0.358595
  endloop
 endfacet
 facet normal 0.168503 0.0767151 0.982711
  outer loop
   vertex 0.587279 0.3 0.45054
   vertex 0.579453 1.495 0.358595
   vertex 0.562203 0.3 0.45484
  endloop
 endfacet
 facet normal 0.168502 0.0767152 0.982711
  outer loop
   vertex 0.562203 0.3 0.45484
   vertex 0.579453 1.495 0.358595
   vertex 0.538951 1.495 0.36554
  endloop
 endfacet
 facet normal 0.332159 0.0767152 0.940099
  outer loop
   vertex 0.562203 0.3 0.45484
   vertex 0.538951 1.495 0.36554
   vertex 0.538215 0.3 0.463316
  endloop
 endfacet
 facet normal 0.332158 0.0767152 0.940099
  outer loop
   vertex 0.538215 0.3 0.463316
   vertex 0.538951 1.495 0.36554
   vertex 0.500205 1.495 0.379229
  endloop
 endfacet
 facet normal 0.486257 0.0767152 0.870442
  outer loop
   vertex 0.538215 0.3 0.463316
   vertex 0.500205 1.495 0.379229
   vertex 0.516004 0.3 0.475724
  endloop
 endfacet
 facet normal 0.486258 0.0767151 0.870441
  outer loop
   vertex 0.516004 0.3 0.475724
   vertex 0.500205 1.495 0.379229
   vertex 0.46433 1.495 0.39927
  endloop
 endfacet
 facet normal 0.626369 0.0767151 0.775743
  outer loop
   vertex 0.516004 0.3 0.475724
   vertex 0.46433 1.495 0.39927
   vertex 0.496209 0.3 0.491707
  endloop
 endfacet
 facet normal 0.626368 0.0767152 0.775743
  outer loop
   vertex 0.496209 0.3 0.491707
   vertex 0.46433 1.495 0.39927
   vertex 0.432358 1.495 0.425086
  endloop
 endfacet
 facet normal 0.74846 0.0767152 0.658728
  outer loop
   vertex 0.496209 0.3 0.491707
   vertex 0.432358 1.495 0.425086
   vertex 0.4794 0.3 0.510805
  endloop
 endfacet
 facet normal 0.748461 0.0767151 0.658727
  outer loop
   vertex 0.4794 0.3 0.510805
   vertex 0.432358 1.495 0.425086
   vertex 0.405209 1.495 0.455934
  endloop
 endfacet
 facet normal 0.84902 0.0767151 0.522762
  outer loop
   vertex 0.4794 0.3 0.510805
   vertex 0.405209 1.495 0.455934
   vertex 0.466061 0.3 0.532469
  endloop
 endfacet
 facet normal 0.84902 0.0767152 0.522762
  outer loop
   vertex 0.466061 0.3 0.532469
   vertex 0.405209 1.495 0.455934
   vertex 0.383664 1.495 0.490926
  endloop
 endfacet
 facet normal 0.925154 0.0767152 0.371759
  outer loop
   vertex 0.466061 0.3 0.532469
   vertex 0.383664 1.495 0.490926
   vertex 0.456575 0.3 0.556077
  endloop
 endfacet
 facet normal 0.925154 0.0767151 0.371758
  outer loop
   vertex 0.456575 0.3 0.556077
   vertex 0.383664 1.495 0.490926
   vertex 0.368342 1.495 0.529056
  endloop
 endfacet
 facet normal 0.974674 0.0767151 0.210058
  outer loop
   vertex 0.456575 0.3 0.556077
   vertex 0.368342 1.495 0.529056
   vertex 0.451215 0.3 0.580947
  endloop
 endfacet
 facet normal 0.974674 0.0767151 0.210058
  outer loop
   vertex 0.451215 0.3 0.580947
   vertex 0.368342 1.495 0.529056
   vertex 0.359684 1.495 0.569226
  endloop
 endfacet
 facet normal 0.996155 0.0767151 0.0423158
  outer loop
   vertex 0.451215 0.3 0.580947
   vertex 0.359684 1.495 0.569226
   vertex 0.450135 0.3 0.606366
  endloop
 endfacet
 facet normal 0.996155 0.0767152 0.0423162
  outer loop
   vertex 0.450135 0.3 0.606366
   vertex 0.359684 1.495 0.569226
   vertex 0.35794 1.495 0.610283
  endloop
 endfacet
 facet normal 0.988977 0.0767152 -0.126643
  outer loop
   vertex 0.450135 0.3 0.606366
   vertex 0.35794 1.495 0.610283
   vertex 0.453367 0.3 0.631602
  endloop
 endfacet
 facet normal 0.988977 0.0767151 -0.126644
  outer loop
   vertex 0.453367 0.3 0.631602
   vertex 0.35794 1.495 0.610283
   vertex 0.36316 1.495 0.651043
  endloop
 endfacet
 facet normal 0.953349 0.0767151 -0.291961
  outer loop
   vertex 0.453367 0.3 0.631602
   vertex 0.36316 1.495 0.651043
   vertex 0.460817 0.3 0.655928
  endloop
 endfacet
 facet normal 0.953349 0.0767152 -0.291959
  outer loop
   vertex 0.460817 0.3 0.655928
   vertex 0.36316 1.495 0.651043
   vertex 0.375193 1.495 0.690335
  endloop
 endfacet
 facet normal 0.890295 0.0767152 -0.448876
  outer loop
   vertex 0.460817 0.3 0.655928
   vertex 0.375193 1.495 0.690335
   vertex 0.472271 0.3 0.678646
  endloop
 endfacet
 facet normal 0.890294 0.0767151 -0.448878
  outer loop
   vertex 0.472271 0.3 0.678646
   vertex 0.375193 1.495 0.690335
   vertex 0.393693 1.495 0.727028
  endloop
 endfacet
 facet normal 0.801628 0.0767151 -0.59288
  outer loop
   vertex 0.472271 0.3 0.678646
   vertex 0.393693 1.495 0.727028
   vertex 0.487399 0.3 0.699101
  endloop
 endfacet
 facet normal 0.801628 0.0767151 -0.592881
  outer loop
   vertex 0.487399 0.3 0.699101
   vertex 0.393693 1.495 0.727028
   vertex 0.418129 1.495 0.760067
  endloop
 endfacet
 facet normal 0.689899 0.0767151 -0.719829
  outer loop
   vertex 0.487399 0.3 0.699101
   vertex 0.418129 1.495 0.760067
   vertex 0.505767 0.3 0.716705
  endloop
 endfacet
 facet normal 0.6899 0.0767152 -0.719828
  outer loop
   vertex 0.505767 0.3 0.716705
   vertex 0.418129 1.495 0.760067
   vertex 0.447796 1.495 0.788501
  endloop
 endfacet
 facet normal 0.558325 0.0767152 -0.826068
  outer loop
   vertex 0.505767 0.3 0.716705
   vertex 0.447796 1.495 0.788501
   vertex 0.526846 0.3 0.730952
  endloop
 endfacet
 facet normal 0.558324 0.0767151 -0.826068
  outer loop
   vertex 0.526846 0.3 0.730952
   vertex 0.447796 1.495 0.788501
   vertex 0.481842 1.495 0.811512
  endloop
 endfacet
 facet normal 0.410687 0.0767151 -0.908543
  outer loop
   vertex 0.526846 0.3 0.730952
   vertex 0.481842 1.495 0.811512
   vertex 0.550029 0.3 0.741432
  endloop
 endfacet
 facet normal 0.410687 0.0767151 -0.908543
  outer loop
   vertex 0.550029 0.3 0.741432
   vertex 0.481842 1.495 0.811512
   vertex 0.519288 1.495 0.828438
  endloop
 endfacet
 facet normal 0.251235 0.0767151 -0.964881
  outer loop
   vertex 0.550029 0.3 0.741432
   vertex 0.519288 1.495 0.828438
   vertex 0.57465 0.3 0.747842
  endloop
 endfacet
 facet normal 0.251236 0.0767152 -0.964881
  outer loop
   vertex 0.57465 0.3 0.747842
   vertex 0.519288 1.495 0.828438
   vertex 0.559055 1.495 0.838793
  endloop
 endfacet
 facet normal 0.0845553 0.0767152 -0.993461
  outer loop
   vertex 0.57465 0.3 0.747842
   vertex 0.559055 1.495 0.838793
   vertex 0.6 0.3 0.75
  endloop
 endfacet
 facet normal 0.0845555 0.0767152 -0.993461
  outer loop
   vertex 0.6 0.3 0.75
   vertex 0.559055 1.495 0.838793
   vertex 0.6 1.495 0.842278
  endloop
 endfacet
 facet normal -0.0845551 0.0767152 -0.993461
  outer loop
   vertex 0.6 0.3 0.75
   vertex 0.6 1.495 0.842278
   vertex 0.62535 0.3 0.747842
  endloop
 endfacet
 facet normal -0.0845554 0.0767152 -0.993461
  outer loop
   vertex 0.62535 0.3 0.747842
   vertex 0.6 1.495 0.842278
   vertex 0.640945 1.495 0.838793
  endloop
 endfacet
 facet normal -0.251235 0.0767152 -0.964881
  outer loop
   vertex 0.62535 0.3 0.747842
   vertex 0.640945 1.495 0.838793
   vertex 0.649971 0.3 0.741432
  endloop
 endfacet
 facet normal -0.251236 0.0767151 -0.964881
  outer loop
   vertex 0.649971 0.3 0.741432
   vertex 0.640945 1.495 0.838793
   vertex 0.680712 1.495 0.828438
  endloop
 endfacet
 facet normal -0.410688 0.0767151 -0.908543
  outer loop
   vertex 0.649971 0.3 0.741432
   vertex 0.680712 1.495 0.828438
   vertex 0.673154 0.3 0.730952
  endloop
 endfacet
 facet normal -0.410687 0.0767152 -0.908543
  outer loop
   vertex 0.673154 0.3 0.730952
   vertex 0.680712 1.495 0.828438
   vertex 0.718158 1.495 0.811512
  endloop
 endfacet
 facet normal -0.558324 0.0767152 -0.826068
  outer loop
   vertex 0.673154 0.3 0.730952
   vertex 0.718158 1.495 0.811512
   vertex 0.694233 0.3 0.716705
  endloop
 endfacet
 facet normal -0.558324 0.0767152 -0.826068
  outer loop
   vertex 0.694233 0.3 0.716705
   vertex 0.718158 1.495 0.811512
   vertex 0.752204 1.495 0.788501
  endloop
 endfacet
 facet normal -0.689899 0.0767152 -0.719829
  outer loop
   vertex 0.694233 0.3 0.716705
   vertex 0.752204 1.495 0.788501
   vertex 0.712601 0.3 0.699101
  endloop
 endfacet
 facet normal -0.6899 0.0767151 -0.719828
  outer loop
   vertex 0.712601 0.3 0.699101
   vertex 0.752204 1.495 0.788501
   vertex 0.781871 1.495 0.760067
  endloop
 endfacet
 facet normal -0.801629 0.0767151 -0.592879
  outer loop
   vertex 0.712601 0.3 0.699101
   vertex 0.781871 1.495 0.760067
   vertex 0.727729 0.3 0.678646
  endloop
 endfacet
 facet normal -0.801627 0.0767152 -0.592881
  outer loop
   vertex 0.727729 0.3 0.678646
   vertex 0.781871 1.495 0.760067
   vertex 0.806307 1.495 0.727028
  endloop
 endfacet
 facet normal -0.890294 0.0767152 -0.448878
  outer loop
   vertex 0.727729 0.3 0.678646
   vertex 0.806307 1.495 0.727028
   vertex 0.739183 0.3 0.655928
  endloop
 endfacet
 facet normal -0.890294 0.0767152 -0.448877
  outer loop
   vertex 0.739183 0.3 0.655928
   vertex 0.806307 1.495 0.727028
   vertex 0.824807 1.495 0.690335
  endloop
 endfacet
 facet normal -0.953349 0.0767151 -0.291959
  outer loop
   vertex 0.739183 0.3 0.655928
   vertex 0.824807 1.495 0.690335
   vertex 0.746633 0.3 0.631602
  endloop
 endfacet
 facet normal -0.953349 0.0767152 -0.291959
  outer loop
   vertex 0.746633 0.3 0.631602
   vertex 0.824807 1.495 0.690335
   vertex 0.83684 1.495 0.651043
  endloop
 endfacet
 facet normal -0.988977 0.0767152 -0.126644
  outer loop
   vertex 0.746633 0.3 0.631602
   vertex 0.83684 1.495 0.651043
   vertex 0.749865 0.3 0.606366
  endloop
 endfacet
 facet normal -0.988977 0.0767151 -0.126643
  outer loop
   vertex 0.749865 0.3 0.606366
   vertex 0.83684 1.495 0.651043
   vertex 0.84206 1.495 0.610283
  endloop
 endfacet
 facet normal -0.996155 0.0767151 0.0423158
  outer loop
   vertex 0.749865 0.3 0.606366
   vertex 0.84206 1.495 0.610283
   vertex 0.748785 0.3 0.580947
  endloop
 endfacet
 facet normal -0.996155 0.0767151 0.0423155
  outer loop
   vertex 0.748785 0.3 0.580947
   vertex 0.84206 1.495 0.610283
   vertex 0.840316 1.495 0.569226
  endloop
 endfacet
 facet normal -0.974674 0.0767151 0.210058
  outer loop
   vertex 0.748785 0.3 0.580947
   vertex 0.840316 1.495 0.569226
   vertex 0.743425 0.3 0.556077
  endloop
 endfacet
 facet normal -0.974674 0.0767151 0.210058
  outer loop
   vertex 0.743425 0.3 0.556077
   vertex 0.840316 1.495 0.569226
   vertex 0.831658 1.495 0.529056
  endloop
 endfacet
 facet normal -0.925154 0.0767151 0.371759
  outer loop
   vertex 0.743425 0.3 0.556077
   vertex 0.831658 1.495 0.529056
   vertex 0.733939 0.3 0.532469
  endloop
 endfacet
 facet normal -0.925154 0.0767152 0.371758
  outer loop
   vertex 0.733939 0.3 0.532469
   vertex 0.831658 1.495 0.529056
   vertex 0.816336 1.495 0.490926
  endloop
 endfacet
 facet normal -0.84902 0.0767152 0.522762
  outer loop
   vertex 0.733939 0.3 0.532469
   vertex 0.816336 1.495 0.490926
   vertex 0.7206 0.3 0.510805
  endloop
 endfacet
 facet normal -0.84902 0.0767151 0.522762
  outer loop
   vertex 0.7206 0.3 0.510805
   vertex 0.816336 1.495 0.490926
   vertex 0.794791 1.495 0.455934
  endloop
 endfacet
 facet normal -0.74846 0.0767151 0.658728
  outer loop
   vertex 0.7206 0.3 0.510805
   vertex 0.794791 1.495 0.455934
   vertex 0.703791 0.3 0.491707
  endloop
 endfacet
 facet normal -0.748461 0.0767152 0.658727
  outer loop
   vertex 0.703791 0.3 0.491707
   vertex 0.794791 1.495 0.455934
   vertex 0.767642 1.495 0.425086
  endloop
 endfacet
 facet normal -0.626369 0.0767152 0.775743
  outer loop
   vertex 0.703791 0.3 0.491707
   vertex 0.767642 1.495 0.425086
   vertex 0.683996 0.3 0.475724
  endloop
 endfacet
 facet normal -0.626368 0.0767152 0.775743
  outer loop
   vertex 0.683996 0.3 0.475724
   vertex 0.767642 1.495 0.425086
   vertex 0.73567 1.495 0.39927
  endloop
 endfacet
 facet normal -0.486258 0.0767152 0.870441
  outer loop
   vertex 0.683996 0.3 0.475724
   vertex 0.73567 1.495 0.39927
   vertex 0.661785 0.3 0.463316
  endloop
 endfacet
 facet normal -0.486258 0.0767152 0.870441
  outer loop
   vertex 0.661785 0.3 0.463316
   vertex 0.73567 1.495 0.39927
   vertex 0.699795 1.495 0.379229
  endloop
 endfacet
 facet normal -0.332159 0.0767152 0.940099
  outer loop
   vertex 0.661785 0.3 0.463316
   vertex 0.699795 1.495 0.379229
   vertex 0.637797 0.3 0.45484
  endloop
 endfacet
 facet normal -0.332158 0.0767152 0.940099
  outer loop
   vertex 0.637797 0.3 0.45484
   vertex 0.699795 1.495 0.379229
   vertex 0.661049 1.495 0.36554
  endloop
 endfacet
 facet normal -0.168503 0.0767152 0.982711
  outer loop
   vertex 0.637797 0.3 0.45484
   vertex 0.661049 1.495 0.36554
   vertex 0.612721 0.3 0.45054
  endloop
 endfacet
 facet normal 0.0845552 -0.0767151 0.993461
  outer loop
   vertex 0.6 1.595 0.825
   vertex 0.621125 0.3 0.723202
   vertex 0.638025 1.595 0.821764
  endloop
 endfacet
 facet normal 0.251237 -0.0767151 0.964881
  outer loop
   vertex 0.638025 1.595 0.821764
   vertex 0.621125 0.3 0.723202
   vertex 0.641643 0.3 0.71786
  endloop
 endfacet
 facet normal 0.251235 -0.0767152 0.964881
  outer loop
   vertex 0.638025 1.595 0.821764
   vertex 0.641643 0.3 0.71786
   vertex 0.674956 1.595 0.812147
  endloop
 endfacet
 facet normal 0.410687 -0.0767152 0.908543
  outer loop
   vertex 0.674956 1.595 0.812147
   vertex 0.641643 0.3 0.71786
   vertex 0.660962 0.3 0.709127
  endloop
 endfacet
 facet normal 0.410687 -0.0767152 0.908543
  outer loop
   vertex 0.674956 1.595 0.812147
   vertex 0.660962 0.3 0.709127
   vertex 0.709731 1.595 0.796428
  endloop
 endfacet
 facet normal 0.558324 -0.0767152 0.826069
  outer loop
   vertex 0.709731 1.595 0.796428
   vertex 0.660962 0.3 0.709127
   vertex 0.678528 0.3 0.697255
  endloop
 endfacet
 facet normal 0.558324 -0.0767152 0.826068
  outer loop
   vertex 0.709731 1.595 0.796428
   vertex 0.678528 0.3 0.697255
   vertex 0.74135 1.595 0.775058
  endloop
 endfacet
 facet normal 0.689901 -0.0767152 0.719827
  outer loop
   vertex 0.74135 1.595 0.775058
   vertex 0.678528 0.3 0.697255
   vertex 0.693834 0.3 0.682584
  endloop
 endfacet
 facet normal 0.6899 -0.0767152 0.719828
  outer loop
   vertex 0.74135 1.595 0.775058
   vertex 0.693834 0.3 0.682584
   vertex 0.768901 1.595 0.748652
  endloop
 endfacet
 facet normal 0.801627 -0.0767152 0.592882
  outer loop
   vertex 0.768901 1.595 0.748652
   vertex 0.693834 0.3 0.682584
   vertex 0.706441 0.3 0.665538
  endloop
 endfacet
 facet normal 0.801628 -0.0767151 0.59288
  outer loop
   vertex 0.768901 1.595 0.748652
   vertex 0.706441 0.3 0.665538
   vertex 0.791594 1.595 0.717969
  endloop
 endfacet
 facet normal 0.890295 -0.0767151 0.448876
  outer loop
   vertex 0.791594 1.595 0.717969
   vertex 0.706441 0.3 0.665538
   vertex 0.715986 0.3 0.646607
  endloop
 endfacet
 facet normal 0.890294 -0.0767152 0.448877
  outer loop
   vertex 0.791594 1.595 0.717969
   vertex 0.715986 0.3 0.646607
   vertex 0.808775 1.595 0.683893
  endloop
 endfacet
 facet normal 0.953349 -0.0767151 0.29196
  outer loop
   vertex 0.808775 1.595 0.683893
   vertex 0.715986 0.3 0.646607
   vertex 0.722194 0.3 0.626335
  endloop
 endfacet
 facet normal 0.953349 -0.0767152 0.29196
  outer loop
   vertex 0.808775 1.595 0.683893
   vertex 0.722194 0.3 0.626335
   vertex 0.81995 1.595 0.647403
  endloop
 endfacet
 facet normal 0.988977 -0.0767152 0.126645
  outer loop
   vertex 0.81995 1.595 0.647403
   vertex 0.722194 0.3 0.626335
   vertex 0.724887 0.3 0.605305
  endloop
 endfacet
 facet normal 0.988977 -0.0767152 0.126644
  outer loop
   vertex 0.81995 1.595 0.647403
   vertex 0.724887 0.3 0.605305
   vertex 0.824797 1.595 0.609549
  endloop
 endfacet
 facet normal 0.996155 -0.0767152 -0.0423173
  outer loop
   vertex 0.824797 1.595 0.609549
   vertex 0.724887 0.3 0.605305
   vertex 0.723988 0.3 0.584123
  endloop
 endfacet
 facet normal 0.996155 -0.0767152 -0.0423166
  outer loop
   vertex 0.824797 1.595 0.609549
   vertex 0.723988 0.3 0.584123
   vertex 0.823178 1.595 0.571421
  endloop
 endfacet
 facet normal 0.974675 -0.0767152 -0.210056
  outer loop
   vertex 0.823178 1.595 0.571421
   vertex 0.723988 0.3 0.584123
   vertex 0.719521 0.3 0.563397
  endloop
 endfacet
 facet normal 0.974674 -0.0767151 -0.210059
  outer loop
   vertex 0.823178 1.595 0.571421
   vertex 0.719521 0.3 0.563397
   vertex 0.815138 1.595 0.534115
  endloop
 endfacet
 facet normal 0.925155 -0.0767151 -0.371757
  outer loop
   vertex 0.815138 1.595 0.534115
   vertex 0.719521 0.3 0.563397
   vertex 0.711616 0.3 0.543725
  endloop
 endfacet
 facet normal 0.925155 -0.0767151 -0.371758
  outer loop
   vertex 0.815138 1.595 0.534115
   vertex 0.711616 0.3 0.543725
   vertex 0.800908 1.595 0.498704
  endloop
 endfacet
 facet normal 0.849019 -0.0767151 -0.522763
  outer loop
   vertex 0.800908 1.595 0.498704
   vertex 0.711616 0.3 0.543725
   vertex 0.7005 0.3 0.525671
  endloop
 endfacet
 facet normal 0.84902 -0.0767151 -0.522762
  outer loop
   vertex 0.800908 1.595 0.498704
   vertex 0.7005 0.3 0.525671
   vertex 0.780899 1.595 0.466208
  endloop
 endfacet
 facet normal 0.748459 -0.0767151 -0.658729
  outer loop
   vertex 0.780899 1.595 0.466208
   vertex 0.7005 0.3 0.525671
   vertex 0.686492 0.3 0.509756
  endloop
 endfacet
 facet normal 0.74846 -0.0767152 -0.658727
  outer loop
   vertex 0.780899 1.595 0.466208
   vertex 0.686492 0.3 0.509756
   vertex 0.755686 1.595 0.43756
  endloop
 endfacet
 facet normal 0.62637 -0.0767152 -0.775742
  outer loop
   vertex 0.755686 1.595 0.43756
   vertex 0.686492 0.3 0.509756
   vertex 0.669997 0.3 0.496436
  endloop
 endfacet
 facet normal 0.626368 -0.0767151 -0.775743
  outer loop
   vertex 0.755686 1.595 0.43756
   vertex 0.669997 0.3 0.496436
   vertex 0.725994 1.595 0.413585
  endloop
 endfacet
 facet normal 0.486257 -0.0767151 -0.870442
  outer loop
   vertex 0.725994 1.595 0.413585
   vertex 0.669997 0.3 0.496436
   vertex 0.651488 0.3 0.486096
  endloop
 endfacet
 facet normal 0.486258 -0.0767151 -0.870441
  outer loop
   vertex 0.725994 1.595 0.413585
   vertex 0.651488 0.3 0.486096
   vertex 0.692678 1.595 0.394974
  endloop
 endfacet
 facet normal 0.332157 -0.0767151 -0.940099
  outer loop
   vertex 0.692678 1.595 0.394974
   vertex 0.651488 0.3 0.486096
   vertex 0.631497 0.3 0.479033
  endloop
 endfacet
 facet normal 0.332159 -0.0767152 -0.940099
  outer loop
   vertex 0.692678 1.595 0.394974
   vertex 0.631497 0.3 0.479033
   vertex 0.656695 1.595 0.38226
  endloop
 endfacet
 facet normal 0.168503 -0.0767152 -0.982711
  outer loop
   vertex 0.656695 1.595 0.38226
   vertex 0.631497 0.3 0.479033
   vertex 0.610601 0.3 0.47545
  endloop
 endfacet
 facet normal 0.168502 -0.0767151 -0.982711
  outer loop
   vertex 0.656695 1.595 0.38226
   vertex 0.610601 0.3 0.47545
   vertex 0.619081 1.595 0.375811
  endloop
 endfacet
 facet normal 0 -0.0767151 -0.997053
  outer loop
   vertex 0.619081 1.595 0.375811
   vertex 0.610601 0.3 0.47545
   vertex 0.589399 0.3 0.47545
  endloop
 endfacet
 facet normal -0 -0.0767151 -0.997053
  outer loop
   vertex 0.619081 1.595 0.375811
   vertex 0.589399 0.3 0.47545
   vertex 0.580919 1.595 0.375811
  endloop
 endfacet
 facet normal -0.168503 -0.0767151 -0.982711
  outer loop
   vertex 0.580919 1.595 0.375811
   vertex 0.589399 0.3 0.47545
   vertex 0.568503 0.3 0.479033
  endloop
 endfacet
 facet normal -0.168502 -0.0767152 -0.982712
  outer loop
   vertex 0.580919 1.595 0.375811
   vertex 0.568503 0.3 0.479033
   vertex 0.543305 1.595 0.38226
  endloop
 endfacet
 facet normal -0.332158 -0.0767152 -0.940099
  outer loop
   vertex 0.543305 1.595 0.38226
   vertex 0.568503 0.3 0.479033
   vertex 0.548512 0.3 0.486096
  endloop
 endfacet
 facet normal -0.332159 -0.0767151 -0.940099
  outer loop
   vertex 0.543305 1.595 0.38226
   vertex 0.548512 0.3 0.486096
   vertex 0.507322 1.595 0.394974
  endloop
 endfacet
 facet normal -0.486257 -0.0767152 -0.870442
  outer loop
   vertex 0.507322 1.595 0.394974
   vertex 0.548512 0.3 0.486096
   vertex 0.530003 0.3 0.496436
  endloop
 endfacet
 facet normal -0.486258 -0.0767151 -0.870441
  outer loop
   vertex 0.507322 1.595 0.394974
   vertex 0.530003 0.3 0.496436
   vertex 0.474006 1.595 0.413585
  endloop
 endfacet
 facet normal -0.62637 -0.0767151 -0.775742
  outer loop
   vertex 0.474006 1.595 0.413585
   vertex 0.530003 0.3 0.496436
   vertex 0.513508 0.3 0.509756
  endloop
 endfacet
 facet normal -0.626369 -0.0767152 -0.775743
  outer loop
   vertex 0.474006 1.595 0.413585
   vertex 0.513508 0.3 0.509756
   vertex 0.444314 1.595 0.43756
  endloop
 endfacet
 facet normal -0.748459 -0.0767152 -0.658729
  outer loop
   vertex 0.444314 1.595 0.43756
   vertex 0.513508 0.3 0.509756
   vertex 0.4995 0.3 0.525671
  endloop
 endfacet
 facet normal -0.74846 -0.0767151 -0.658728
  outer loop
   vertex 0.444314 1.595 0.43756
   vertex 0.4995 0.3 0.525671
   vertex 0.419101 1.595 0.466208
  endloop
 endfacet
 facet normal -0.849019 -0.0767151 -0.522763
  outer loop
   vertex 0.419101 1.595 0.466208
   vertex 0.4995 0.3 0.525671
   vertex 0.488384 0.3 0.543725
  endloop
 endfacet
 facet normal -0.84902 -0.0767151 -0.522762
  outer loop
   vertex 0.419101 1.595 0.466208
   vertex 0.488384 0.3 0.543725
   vertex 0.399092 1.595 0.498704
  endloop
 endfacet
 facet normal -0.925155 -0.0767151 -0.371757
  outer loop
   vertex 0.399092 1.595 0.498704
   vertex 0.488384 0.3 0.543725
   vertex 0.480479 0.3 0.563397
  endloop
 endfacet
 facet normal -0.925155 -0.0767151 -0.371758
  outer loop
   vertex 0.399092 1.595 0.498704
   vertex 0.480479 0.3 0.563397
   vertex 0.384863 1.595 0.534115
  endloop
 endfacet
 facet normal -0.974675 -0.0767151 -0.210058
  outer loop
   vertex 0.384863 1.595 0.534115
   vertex 0.480479 0.3 0.563397
   vertex 0.476012 0.3 0.584123
  endloop
 endfacet
 facet normal -0.974674 -0.0767152 -0.210059
  outer loop
   vertex 0.384863 1.595 0.534115
   vertex 0.476012 0.3 0.584123
   vertex 0.376822 1.595 0.571421
  endloop
 endfacet
 facet normal -0.996155 -0.0767152 -0.0423173
  outer loop
   vertex 0.376822 1.595 0.571421
   vertex 0.476012 0.3 0.584123
   vertex 0.475113 0.3 0.605305
  endloop
 endfacet
 facet normal -0.996155 -0.0767151 -0.0423159
  outer loop
   vertex 0.376822 1.595 0.571421
   vertex 0.475113 0.3 0.605305
   vertex 0.375203 1.595 0.609549
  endloop
 endfacet
 facet normal -0.988977 -0.0767151 0.126645
  outer loop
   vertex 0.375203 1.595 0.609549
   vertex 0.475113 0.3 0.605305
   vertex 0.477806 0.3 0.626335
  endloop
 endfacet
 facet normal -0.988977 -0.0767152 0.126643
  outer loop
   vertex 0.375203 1.595 0.609549
   vertex 0.477806 0.3 0.626335
   vertex 0.38005 1.595 0.647403
  endloop
 endfacet
 facet normal -0.953349 -0.0767152 0.29196
  outer loop
   vertex 0.38005 1.595 0.647403
   vertex 0.477806 0.3 0.626335
   vertex 0.484014 0.3 0.646607
  endloop
 endfacet
 facet normal -0.953349 -0.0767151 0.29196
  outer loop
   vertex 0.38005 1.595 0.647403
   vertex 0.484014 0.3 0.646607
   vertex 0.391225 1.595 0.683893
  endloop
 endfacet
 facet normal -0.890294 -0.0767151 0.448877
  outer loop
   vertex 0.391225 1.595 0.683893
   vertex 0.484014 0.3 0.646607
   vertex 0.493559 0.3 0.665538
  endloop
 endfacet
 facet normal -0.890294 -0.0767152 0.448877
  outer loop
   vertex 0.391225 1.595 0.683893
   vertex 0.493559 0.3 0.665538
   vertex 0.408406 1.595 0.717969
  endloop
 endfacet
 facet normal -0.801628 -0.0767152 0.592881
  outer loop
   vertex 0.408406 1.595 0.717969
   vertex 0.493559 0.3 0.665538
   vertex 0.506166 0.3 0.682584
  endloop
 endfacet
 facet normal -0.801628 -0.0767152 0.592881
  outer loop
   vertex 0.408406 1.595 0.717969
   vertex 0.506166 0.3 0.682584
   vertex 0.431099 1.595 0.748652
  endloop
 endfacet
 facet normal -0.6899 -0.0767152 0.719828
  outer loop
   vertex 0.431099 1.595 0.748652
   vertex 0.506166 0.3 0.682584
   vertex 0.521473 0.3 0.697255
  endloop
 endfacet
 facet normal -0.6899 -0.0767151 0.719829
  outer loop
   vertex 0.431099 1.595 0.748652
   vertex 0.521473 0.3 0.697255
   vertex 0.458651 1.595 0.775058
  endloop
 endfacet
 facet normal -0.558324 -0.0767151 0.826069
  outer loop
   vertex 0.458651 1.595 0.775058
   vertex 0.521473 0.3 0.697255
   vertex 0.539038 0.3 0.709127
  endloop
 endfacet
 facet normal -0.558324 -0.0767152 0.826068
  outer loop
   vertex 0.458651 1.595 0.775058
   vertex 0.539038 0.3 0.709127
   vertex 0.490269 1.595 0.796428
  endloop
 endfacet
 facet normal -0.410687 -0.0767152 0.908543
  outer loop
   vertex 0.490269 1.595 0.796428
   vertex 0.539038 0.3 0.709127
   vertex 0.558358 0.3 0.71786
  endloop
 endfacet
 facet normal -0.410687 -0.0767152 0.908543
  outer loop
   vertex 0.490269 1.595 0.796428
   vertex 0.558358 0.3 0.71786
   vertex 0.525044 1.595 0.812147
  endloop
 endfacet
 facet normal -0.251237 -0.0767152 0.964881
  outer loop
   vertex 0.525044 1.595 0.812147
   vertex 0.558358 0.3 0.71786
   vertex 0.578875 0.3 0.723202
  endloop
 endfacet
 facet normal -0.251235 -0.0767151 0.964881
  outer loop
   vertex 0.525044 1.595 0.812147
   vertex 0.578875 0.3 0.723202
   vertex 0.561975 1.595 0.821764
  endloop
 endfacet
 facet normal -0.0845544 -0.0767151 0.993461
  outer loop
   vertex 0.561975 1.595 0.821764
   vertex 0.578875 0.3 0.723202
   vertex 0.6 0.3 0.725
  endloop
 endfacet
 facet normal -0.0845553 -0.0767152 0.993461
  outer loop
   vertex 0.561975 1.595 0.821764
   vertex 0.6 0.3 0.725
   vertex 0.6 1.595 0.825
  endloop
 endfacet
 facet normal 0.0845542 -0.0767152 0.993461
  outer loop
   vertex 0.6 1.595 0.825
   vertex 0.6 0.3 0.725
   vertex 0.621125 0.3 0.723202
  endloop
 endfacet
 facet normal 0 0 1
  outer loop
   vertex 0 1.095 1.4
   vertex 0.09 1.095 1.4
   vertex 0 1.495 1.4
  endloop
 endfacet
 facet normal -0 0 1
  outer loop
   vertex 0 1.495 1.4
   vertex 0.09 1.095 1.4
   vertex 0.09 1.495 1.4
  endloop
 endfacet
 facet normal 0 1 0
  outer loop
   vertex 0.6 1.595 0.825
   vertex 0.638025 1.595 0.821764
   vertex 0.6 1.595 0.6
  endloop
 endfacet
 facet normal -0 1 0
  outer loop
   vertex 0.490269 1.595 0.796428
   vertex 0.525044 1.595 0.812147
   vertex 0.6 1.595 0.6
  endloop
 endfacet
 facet normal 0 1 0
  outer loop
   vertex 0.6 1.595 0.6
   vertex 0.525044 1.595 0.812147
   vertex 0.561975 1.595 0.821764
  endloop
 endfacet
 facet normal 0 1 -0
  outer loop
   vertex 0.6 1.595 0.6
   vertex 0.561975 1.595 0.821764
   vertex 0.6 1.595 0.825
  endloop
 endfacet
 facet normal -0 1 0
  outer loop
   vertex 0.408406 1.595 0.717969
   vertex 0.431099 1.595 0.748652
   vertex 0.6 1.595 0.6
  endloop
 endfacet
 facet normal 0 1 0
  outer loop
   vertex 0.6 1.595 0.6
   vertex 0.431099 1.595 0.748652
   vertex 0.458651 1.595 0.775058
  endloop
 endfacet
 facet normal 0 1 0
  outer loop
   vertex 0.6 1.595 0.6
   vertex 0.458651 1.595 0.775058
   vertex 0.490269 1.595 0.796428
  endloop
 endfacet
 facet normal -0 1 0
  outer loop
   vertex 0.375203 1.595 0.609549
   vertex 0.38005 1.595 0.647403
   vertex 0.6 1.595 0.6
  endloop
 endfacet
 facet normal 0 1 0
  outer loop
   vertex 0.6 1.595 0.6
   vertex 0.38005 1.595 0.647403
   vertex 0.391225 1.595 0.683893
  endloop
 endfacet
 facet normal 0 1 0
  outer loop
   vertex 0.6 1.595 0.6
   vertex 0.391225 1.595 0.683893
   vertex 0.408406 1.595 0.717969
  endloop
 endfacet
 facet normal 0 1 -0
  outer loop
   vertex 0.399092 1.595 0.498704
   vertex 0.384863 1.595 0.534115
   vertex 0.6 1.595 0.6
  endloop
 endfacet
 facet normal 0 1 0
  outer loop
   vertex 0.6 1.595 0.6
   vertex 0.384863 1.595 0.534115
   vertex 0.376822 1.595 0.571421
  endloop
 endfacet
 facet normal 0 1 0
  outer loop
   vertex 0.6 1.595 0.6
   vertex 0.376822 1.595 0.571421
   vertex 0.375203 1.595 0.609549
  endloop
 endfacet
 facet normal 0 1 -0
  outer loop
   vertex 0.474006 1.595 0.413585
   vertex 0.444314 1.595 0.43756
   vertex 0.6 1.595 0.6
  endloop
 endfacet
 facet normal 0 1 0
  outer loop
   vertex 0.6 1.595 0.6
   vertex 0.444314 1.595 0.43756
   vertex 0.419101 1.595 0.466208
  endloop
 endfacet
 facet normal 0 1 0
  outer loop
   vertex 0.6 1.595 0.6
   vertex 0.419101 1.595 0.466208
   vertex 0.399092 1.595 0.498704
  endloop
 endfacet
 facet normal 0 1 -0
  outer loop
   vertex 0.580919 1.595 0.375811
   vertex 0.543305 1.595 0.38226
   vertex 0.6 1.595 0.6
  endloop
 endfacet
 facet normal 0 1 0
  outer loop
   vertex 0.6 1.595 0.6
   vertex 0.543305 1.595 0.38226
   vertex 0.507322 1.595 0.394974
  endloop
 endfacet
 facet normal 0 1 0
  outer loop
   vertex 0.6 1.595 0.6
   vertex 0.507322 1.595 0.394974
   vertex 0.474006 1.595 0.413585
  endloop
 endfacet
 facet normal 0 1 0
  outer loop
   vertex 0.692678 1.595 0.394974
   vertex 0.656695 1.595 0.38226
   vertex 0.6 1.595 0.6
  endloop
 endfacet
 facet normal 0 1 0
  outer loop
   vertex 0.6 1.595 0.6
   vertex 0.656695 1.595 0.38226
   vertex 0.619081 1.595 0.375811
  endloop
 endfacet
 facet normal 0 1 0
  outer loop
   vertex 0.6 1.595 0.6
   vertex 0.619081 1.595 0.375811
   vertex 0.580919 1.595 0.375811
  endloop
 endfacet
 facet normal 0 1 0
  outer loop
   vertex 0.780899 1.595 0.466208
   vertex 0.755686 1.595 0.43756
   vertex 0.6 1.595 0.6
  endloop
 endfacet
 facet normal 0 1 0
  outer loop
   vertex 0.6 1.595 0.6
   vertex 0.755686 1.595 0.43756
   vertex 0.725994 1.595 0.413585
  endloop
 endfacet
 facet normal 0 1 0
  outer loop
   vertex 0.6 1.595 0.6
   vertex 0.725994 1.595 0.413585
   vertex 0.692678 1.595 0.394974
  endloop
 endfacet
 facet normal 0 1 0
  outer loop
   vertex 0.823178 1.595 0.571421
   vertex 0.815138 1.595 0.534115
   vertex 0.6 1.595 0.6
  endloop
 endfacet
 facet normal 0 1 0
  outer loop
   vertex 0.6 1.595 0.6
   vertex 0.815138 1.595 0.534115
   vertex 0.800908 1.595 0.498704
  endloop
 endfacet
 facet normal 0 1 0
  outer loop
   vertex 0.6 1.595 0.6
   vertex 0.800908 1.595 0.498704
   vertex 0.780899 1.595 0.466208
  endloop
 endfacet
 facet normal 0 1 0
  outer loop
   vertex 0.808775 1.595 0.683893
   vertex 0.81995 1.595 0.647403
   vertex 0.6 1.595 0.6
  endloop
 endfacet
 facet normal 0 1 0
  outer loop
   vertex 0.6 1.595 0.6
   vertex 0.81995 1.595 0.647403
   vertex 0.824797 1.595 0.609549
  endloop
 endfacet
 facet normal -0 1 0
  outer loop
   vertex 0.6 1.595 0.6
   vertex 0.824797 1.595 0.609549
   vertex 0.823178 1.595 0.571421
  endloop
 endfacet
 facet normal 0 1 0
  outer loop
   vertex 0.74135 1.595 0.775058
   vertex 0.768901 1.595 0.748652
   vertex 0.6 1.595 0.6
  endloop
 endfacet
 facet normal 0 1 0
  outer loop
   vertex 0.6 1.595 0.6
   vertex 0.768901 1.595 0.748652
   vertex 0.791594 1.595 0.717969
  endloop
 endfacet
 facet normal 0 1 0
  outer loop
   vertex 0.6 1.595 0.6
   vertex 0.791594 1.595 0.717969
   vertex 0.808775 1.595 0.683893
  endloop
 endfacet
 facet normal 0 1 0
  outer loop
   vertex 0.638025 1.595 0.821764
   vertex 0.674956 1.595 0.812147
   vertex 0.6 1.595 0.6
  endloop
 endfacet
 facet normal 0 1 0
  outer loop
   vertex 0.6 1.595 0.6
   vertex 0.674956 1.595 0.812147
   vertex 0.709731 1.595 0.796428
  endloop
 endfacet
 facet normal 0 1 0
  outer loop
   vertex 0.6 1.595 0.6
   vertex 0.709731 1.595 0.796428
   vertex 0.74135 1.595 0.775058
  endloop
 endfacet
endsolid zone0
